<?xml version="1.0" encoding="utf-8"?>
<!-- Generator: Adobe Illustrator 25.0.0, SVG Export Plug-In . SVG Version: 6.00 Build 0)  -->
<svg version="1.1" id="Capa_1" xmlns="http://www.w3.org/2000/svg" xmlns:xlink="http://www.w3.org/1999/xlink" x="0px" y="0px"
	 viewBox="0 0 62.1 74" style="enable-background:new 0 0 62.1 74;" xml:space="preserve">
<style type="text/css">
	.st0{fill:#04BFAE;}
	.st1{opacity:0.369;fill:#04BFAE;enable-background:new    ;}
	.st2{fill:#2F2E41;}
	.st3{fill:#FFB8B8;}
	.st4{fill:#D0CDE1;}
	.st5{fill:#575A89;}
</style>
<g id="Grupo_100" transform="translate(-1281.622 -8900.555)">
	<path id="Trazado_589" class="st0" d="M1325.7,8959.8c0,0-0.3-0.6-0.4-1.7c-0.1-1,0-2.8,0.9-5.2c1.7-4.6-0.4-8.3-0.4-8.3l0.1-0.1
		c0.4,0.8,0.7,1.6,0.9,2.4c0.4,2,0.3,4-0.4,5.9c-1.7,4.6-0.4,6.7-0.4,6.7L1325.7,8959.8z"/>
	<circle id="Elipse_150" class="st0" cx="1325" cy="8943.6" r="0.8"/>
	<circle id="Elipse_151" class="st0" cx="1327.4" cy="8946.4" r="0.8"/>
	<circle id="Elipse_152" class="st0" cx="1325.8" cy="8948.3" r="0.8"/>
	<circle id="Elipse_153" class="st0" cx="1327.8" cy="8950" r="0.8"/>
	<circle id="Elipse_154" class="st0" cx="1325.2" cy="8952.5" r="0.8"/>
	<path id="Trazado_590" class="st0" d="M1326.1,8959.8c0,0-0.8-1.9,1.5-3.3L1326.1,8959.8z"/>
	<path id="Trazado_591" class="st0" d="M1325.2,8959.7c0,0-0.4-2-3.1-2L1325.2,8959.7z"/>
	<ellipse id="Elipse_155" class="st1" cx="1314" cy="8960.7" rx="14.5" ry="1.9"/>
	<path id="Trazado_592" class="st2" d="M1315.7,8916.1l1.1-0.3c1.5,0,2.7-1.2,2.7-2.7c0-0.2,0-0.4-0.1-0.5l0,0c0-2-1.6-3.6-3.6-3.6
		l0,0c-2,0-3.6,1.6-3.6,3.6l0,0c-0.4,1.5,0.4,3.1,1.9,3.5C1314.7,8916.2,1315.2,8916.2,1315.7,8916.1L1315.7,8916.1z"/>
	<path id="Trazado_593" class="st3" d="M1317.4,8914.5l1.6,2.8l-0.5,1.4l-2.3-0.4l-1.2-2.5L1317.4,8914.5z"/>
	<circle id="Elipse_156" class="st2" cx="1319.2" cy="8909.8" r="1.7"/>
	<path id="Trazado_594" class="st2" d="M1317.7,8908.9c0-0.9,0.8-1.7,1.7-1.7c0.1,0,0.2,0,0.3,0c-0.8-0.4-1.9,0-2.3,0.8
		c-0.4,0.8,0,1.9,0.8,2.3c0.1,0.1,0.3,0.1,0.4,0.1C1318,8910.2,1317.7,8909.6,1317.7,8908.9L1317.7,8908.9z"/>
	<path id="Trazado_595" class="st3" d="M1307,8936.8c0,0-0.3,1.8,0.7,1.7c0.9-0.1,0.7-1.7,0.7-1.7H1307z"/>
	<path id="Trazado_596" class="st3" d="M1306.1,8953.7l-0.7,2.1l1.6,0.7l0.7-2.7H1306.1z"/>
	<path id="Trazado_597" class="st3" d="M1317.5,8955.1l0,2.2l1.7,0.2l-0.2-2.8L1317.5,8955.1z"/>
	<path id="Trazado_598" class="st2" d="M1310.7,8927.2l7.8,0.3l0.5,17.5l1.7,10.1l-4.2,0.8l-3.5-16.9l-4.2,15.3l-3.8-0.4
		L1310.7,8927.2z"/>
	<path id="Trazado_599" class="st2" d="M1306.3,8955.8c0,0-0.7-1.2-1.2-0.5c-0.5,0.7-2.6,3.1-2.6,3.1s-2.3,2.3,1.4,2.1
		c0,0,1.2,0,1.4-0.8c0,0,2.2-0.4,2.2-1s-0.5-2.9-0.5-2.9L1306.3,8955.8z"/>
	<path id="Trazado_600" class="st2" d="M1318.4,8957c0,0-0.7-1.2-1.2-0.5c-0.5,0.7-2.6,3.1-2.6,3.1s-2.3,2.3,1.4,2.1
		c0,0,1.2,0,1.4-0.8c0,0,2.2-0.4,2.2-1s-0.5-2.9-0.5-2.9L1318.4,8957z"/>
	<circle id="Elipse_157" class="st3" cx="1315" cy="8913.6" r="3"/>
	<path id="Trazado_601" class="st4" d="M1319.8,8917.9l-4.7-0.1l-2.7,3.1c0,0-2.5,2.5-1.3,4.3v3h7.5l1.9-5.1L1319.8,8917.9z"/>
	<path id="Trazado_602" class="st5" d="M1319.3,8925.5c0,0-2.7-5.6-1.2-7.6l0.5-1.3l1.5-0.3v0.4l3.8,0.4l-0.9,6.5l-0.8,14.9
		l-7.3-1.4l4.3-9.1L1319.3,8925.5z"/>
	<path id="Trazado_603" class="st5" d="M1315.7,8917.2l-4.2,2.8c0,0-2.2,4.4-2.7,6.5c-0.5,2.1-3.9,10.7-3.9,10.7h4l5.5-17.5l1.8-1.8
		L1315.7,8917.2z"/>
	<path id="Trazado_604" class="st3" d="M1321.7,8925.9l-2.3,0.4c0,0-2.2,1.3-1.7,2.9c0.5,1.6,2.1-1.7,2.1-1.7l2.7-0.3L1321.7,8925.9
		z"/>
	<path id="Trazado_605" class="st5" d="M1322.8,8917.6l1-0.5l4.4,8.8l-5.2,2.5l-2.1-2.9l2.7-0.8l-1.9-3.2L1322.8,8917.6z"/>
	<path id="Trazado_606" class="st2" d="M1316.9,8910.1l-2.3-0.4l-1.8,1.1c-0.9,0.6-1.4,1.6-1.2,2.6l1.8-0.5l0.4-1l0.5,0.8l1.2-0.3
		l2.7,3.3l0.2-3.2L1316.9,8910.1z"/>
	
		<ellipse id="Elipse_158" transform="matrix(0.9398 -0.3416 0.3416 0.9398 -2965.7444 985.8505)" class="st3" cx="1316.2" cy="8913.3" rx="0.3" ry="0.6"/>
</g>
</svg>
