<?xml version="1.0" encoding="utf-8"?>
<!-- Generator: Adobe Illustrator 24.3.0, SVG Export Plug-In . SVG Version: 6.00 Build 0)  -->
<svg version="1.1" id="Capa_1" xmlns="http://www.w3.org/2000/svg" xmlns:xlink="http://www.w3.org/1999/xlink" x="0px" y="0px"
	 viewBox="0 0 285 270" style="enable-background:new 0 0 285 270;" xml:space="preserve">
<style type="text/css">
	.st0{fill:#E6E6E6;}
	.st1{fill:#3F3D56;}
	.st2{opacity:0.2;enable-background:new    ;}
	.st3{fill:#04BFAE;}
	.st4{opacity:0.7;}
	.st5{fill:url(#Trazado_75_1_);}
	.st6{fill:#197BFF;}
	.st7{opacity:0.1;fill:#04BFAE;enable-background:new    ;}
	.st8{fill:#1D79F2;}
	.st9{opacity:0.1;enable-background:new    ;}
	.st10{fill:#FAFAFA;}
</style>
<g id="Grupo_63" transform="translate(-290.425 -1279.154)">
	<path id="Trazado_90" class="st0" d="M403.8,1449.92l-22.98,37.93l0.05,3.85c-1.68,0.01-3.35-0.01-4.99-0.08l1.14-49.53l-0.03-0.38
		l0.04-0.07l0.11-4.68l-25.22-36.61l25.19,33.11l0.09,0.99l0.86-37.42l-21.78-37.96l21.85,31.38l-0.15-50.61l-0.05-16.57h0.22
		l0.39,16.57l0.81,34.18l19.85-24.82l-19.79,30.08l0.43,33.47l18.27-32.67l-18.2,37.59l0.24,18.61l26.57-45.51l-26.48,52l0.54,41.39
		L403.8,1449.92z"/>
	<path id="Trazado_91" class="st0" d="M508.76,1438.64l-7.27,14.28l-18.22,35.77h-4.18l0.09-3.87l-21.97-31.9l-3.25-4.72l3.59,4.72
		l21.6,28.39l0.09,0.99l0.68-29.38l0.18-8.04l-21.78-37.96l21.85,31.38l-0.23-77.53v-0.26l0.01,0.26l1.45,61.1l19.85-24.82
		l-19.78,30.09l0.33,25.78l0.1,7.7l4.3-7.7l13.96-24.97l-12.09,24.97l-6.11,12.62l0.24,18.61l18.23-31.23L508.76,1438.64z"/>
	<path id="Trazado_92" class="st1" d="M497.58,1488.18c0,3.31-30.61,13.23-68.38,13.23s-68.38-9.93-68.38-13.23
		s30.61,1.26,68.38,1.26S497.58,1484.87,497.58,1488.18z"/>
	<path id="Trazado_93" class="st2" d="M497.58,1488.18c0,3.31-30.61,13.23-68.38,13.23s-68.38-9.93-68.38-13.23
		s30.61,1.26,68.38,1.26S497.58,1484.87,497.58,1488.18z"/>
	<ellipse id="Elipse_17" class="st1" cx="429.2" cy="1488.18" rx="68.38" ry="5.99"/>
	<ellipse id="Elipse_18" class="st2" cx="428.68" cy="1488.78" rx="28.14" ry="2.63"/>
	<ellipse id="Elipse_19" class="st0" cx="403.69" cy="1442.23" rx="2.89" ry="2.89"/>
	<ellipse id="Elipse_20" class="st0" cx="456.82" cy="1453.01" rx="2.89" ry="2.89"/>
	<ellipse id="Elipse_21" class="st0" cx="442.35" cy="1468.27" rx="2.1" ry="2.1"/>
	<path id="Trazado_98" class="st0" d="M367.35,1487.26c8.59,1.92,18.07,0.5,18.07,0.5s-4.45-4.52-13.04-6.44s-18.07-0.5-18.07-0.5
		S358.76,1485.35,367.35,1487.26z"/>
	<path id="Trazado_99" class="st3" d="M368.2,1490.5c5.88,0.1,11.73-0.83,17.29-2.74c-5.24-2.27-10.87-3.53-16.58-3.72
		c-5.88-0.1-11.73,0.83-17.29,2.74C356.86,1489.04,362.49,1490.31,368.2,1490.5z"/>
	<path id="Trazado_100" class="st3" d="M368.86,1484.04c6.68,3.37,16.52,3.79,16.52,3.79s-0.99-5.04-7.67-8.41
		c-6.68-3.37-16.52-3.79-16.52-3.79S362.18,1480.67,368.86,1484.04z"/>
	<path id="Trazado_101" class="st0" d="M529.2,1339.83v-16.57H329.32v164.11h16.57v-68.64H529.2v-16.57H345.89v-62.33H529.2z"/>
	<rect id="Rectángulo_26" x="512.89" y="1325.1" class="st0" width="17" height="162"/>
	<path id="Trazado_103" class="st0" d="M360.91,1444.5c-1.53,2.37-3.23,2.45-4.67,1.52l-0.1-0.07c-0.07-0.04-0.13-0.09-0.19-0.14
		c-1.23-0.95-1.67-2.47-0.26-4.67c1.47-2.28,5.74-3.6,6.06-3.7l0,0l0.02-0.01C361.78,1437.44,362.44,1442.13,360.91,1444.5z"/>
	<path id="Trazado_104" class="st0" d="M466.9,1383.7c-1.53,2.37-3.23,2.45-4.67,1.52l-0.1-0.07c-0.07-0.04-0.13-0.09-0.19-0.14
		c-1.23-0.95-1.67-2.47-0.26-4.67c1.47-2.28,5.74-3.6,6.06-3.7l0,0l0.02-0.01C467.76,1376.64,468.43,1381.33,466.9,1383.7z"/>
	<path id="Trazado_105" class="st0" d="M406.42,1366.11c1.91,2.07,1.56,3.74,0.3,4.9l-0.09,0.08c-0.06,0.05-0.12,0.1-0.18,0.15
		c-1.23,0.95-2.81,1-4.59-0.93c-1.84-2-2.05-6.46-2.06-6.79l0,0v-0.02C399.81,1363.5,404.51,1364.04,406.42,1366.11z"/>
	<g id="Grupo_55" transform="translate(361.203 1330.504)">
		<g id="Grupo_52" transform="translate(0 42.038)" class="st4">
			
				<linearGradient id="Trazado_75_1_" gradientUnits="userSpaceOnUse" x1="-75.4779" y1="989.3876" x2="-75.4779" y2="990.3876" gradientTransform="matrix(80.8255 0 0 -71.84 6179.8379 71193.5156)">
				<stop  offset="0" style="stop-color:#808080;stop-opacity:0.251"/>
				<stop  offset="0.535" style="stop-color:#808080;stop-opacity:0.122"/>
				<stop  offset="1" style="stop-color:#808080;stop-opacity:0.102"/>
			</linearGradient>
			<path id="Trazado_75" class="st5" d="M103.04,56.93V44.1H38.89v59.33c0,6.91,5.6,12.51,12.51,12.51h39.13
				c6.91,0,12.51-5.6,12.51-12.51V90.29c9.21,0,16.68-7.47,16.68-16.68S112.25,56.93,103.04,56.93L103.04,56.93L103.04,56.93z
				 M103.04,83.87V63.35c5.67,0,10.26,4.59,10.26,10.26S108.71,83.87,103.04,83.87z"/>
		</g>
		<path id="Trazado_76" class="st6" d="M100.97,100.98c-8.41,0-15.23,6.82-15.23,15.23s6.82,15.23,15.23,15.23
			c8.41,0,15.23-6.82,15.23-15.23l0,0C116.2,107.79,109.38,100.98,100.97,100.98z M100.97,125.58c-5.17,0-9.37-4.2-9.37-9.37
			s4.2-9.37,9.37-9.37s9.37,4.2,9.37,9.37l0,0C110.34,121.38,106.15,125.58,100.97,125.58L100.97,125.58z"/>
		<path id="Trazado_77" class="st7" d="M100.97,100.98c-8.41,0-15.23,6.82-15.23,15.23s6.82,15.23,15.23,15.23
			c8.41,0,15.23-6.82,15.23-15.23l0,0C116.2,107.79,109.38,100.98,100.97,100.98z M100.97,125.58c-5.17,0-9.37-4.2-9.37-9.37
			s4.2-9.37,9.37-9.37s9.37,4.2,9.37,9.37l0,0C110.34,121.38,106.15,125.58,100.97,125.58L100.97,125.58z"/>
		<path id="Trazado_78" class="st8" d="M42.41,89.27h58.57v57.96c0,4.21-3.42,7.63-7.63,7.63l0,0H50.04c-4.21,0-7.63-3.42-7.63-7.63
			l0,0L42.41,89.27z"/>
		<path id="Trazado_88" class="st9" d="M90.43,89.27v54.17c0,6.31-5.11,11.42-11.42,11.42h5.86c6.31,0,11.42-5.11,11.42-11.42V89.27
			H90.43z"/>
		<path id="Trazado_89" class="st10" d="M53.97,45.6c-1.01,0.03-1.96,0.51-2.59,1.31c-0.77,1.39,0.62,2.96,1.89,3.92
			c2.35,1.77,4.82,3.5,6.42,5.97s2.1,5.91,0.35,8.28c-2.28,3.09-7.71,3.75-8.24,7.55c-0.34,2.44,1.77,4.52,3.91,5.75
			c5.28,3.02,12.08,3.83,15.9,8.56c1.58-3.25,5.12-5.13,8.64-5.93s7.19-0.74,10.76-1.29c1.15-0.18,2.45-0.53,2.97-1.58
			c1-2.03-1.85-4.46-0.86-6.49c0.75-1.55,2.95-1.43,4.55-2.05c2.61-1.01,3.69-4.37,2.95-7.07s-2.84-4.81-5.04-6.54
			c-5.93-4.66-13.07-7.41-20.29-9.38c-3.36-0.92-7.3-2.36-10.78-2.5C61.14,43.98,57.3,45.03,53.97,45.6z"/>
	</g>
</g>
</svg>
