<?xml version="1.0" encoding="utf-8"?>
<!-- Generator: Adobe Illustrator 25.0.0, SVG Export Plug-In . SVG Version: 6.00 Build 0)  -->
<svg version="1.1" id="Capa_1" xmlns="http://www.w3.org/2000/svg" xmlns:xlink="http://www.w3.org/1999/xlink" x="0px" y="0px"
	 viewBox="0 0 162.1 109.4" style="enable-background:new 0 0 162.1 109.4;" xml:space="preserve">
<style type="text/css">
	.st0{opacity:0.1;fill:#1D79F2;enable-background:new    ;}
	.st1{fill:#3F3D56;}
	.st2{fill:#FFFFFF;}
	.st3{fill:#1D79F2;}
	.st4{fill:#E6E6E6;}
	.st5{fill:#CBE0F4;}
	.st6{opacity:0.1;}
</style>
<g id="Grupo_80_1_" transform="translate(-1153 -710.782)">
	<path id="Trazado_413_1_" class="st0" d="M1292.9,749.6c-1.3-2.5-2.9-4.8-4.9-6.8l-67.4-0.6l55.5-6.8c-3.6-1.3-7.4-1.9-11.3-2
		c-5.3-3.8-12.2-6.1-19.7-6.1c-6.3-0.1-12.5,1.7-18,4.9c-4.6-2-9.5-3.1-14.4-3c-15,0-27.5,9.1-30.3,21.1L1292.9,749.6z"/>
	<path id="Trazado_414_1_" class="st0" d="M1295.3,759.7c0-3.3-0.7-6.6-2.1-9.5l-116.8,10.7c-1.2,1.9-2.1,3.9-2.7,6.1l36.2,4.7
		l-37,3.4c1.1,13.6,14.5,24.4,30.8,24.4c8.2,0,15.7-2.7,21.2-7.2c5.5,4.5,13.1,7.3,21.4,7.3c12.3,0,22.9-6.1,27.9-15
		c9.9-2.8,17.6-9.7,20.3-18.4l-45.7-6.2h46.7L1295.3,759.7L1295.3,759.7z"/>
	<path id="Trazado_305_1_" class="st1" d="M1249.9,754.6h-0.2v-12.1c0-2.3-1.8-4.1-4-4.1h-25.9c-2.2,0-4,1.8-4,4.1v5.3h-0.1
		c-0.1,0-0.2,0.1-0.2,0.2v2.4c0,0.1,0.1,0.2,0.2,0.2h0.1v2.4h-0.1c-0.1,0-0.2,0.1-0.2,0.2v4.5c0,0.1,0.1,0.2,0.2,0.2h0.1v1.7h-0.1
		c-0.1,0-0.2,0.1-0.2,0.2v4.5c0,0.1,0.1,0.2,0.2,0.2h0.1v40.9c0,2.3,1.8,4.1,4,4.1l0,0h25.9c2.2,0,4-1.8,4-4.1v-42.4h0.2
		c0.1,0,0.2-0.1,0.2-0.2l0,0v-8.2C1250.1,754.7,1250,754.6,1249.9,754.6z"/>
	<path id="Trazado_307_1_" class="st2" d="M1244.9,740.2h-3.9v0.5c0,1.3-1,2.3-2.2,2.3h-12.4c-1.2,0-2.2-1-2.2-2.3v-0.5h-3.6
		c-1.5,0-2.7,1.3-2.7,2.8l0,0v62.1c0,1.5,1.2,2.8,2.7,2.8h24.3c1.5,0,2.7-1.2,2.7-2.8V743C1247.5,741.5,1246.3,740.2,1244.9,740.2
		L1244.9,740.2L1244.9,740.2z"/>
	<path id="Trazado_308_1_" class="st3" d="M1237.9,800.4h-10.4c-1.6,0-2.8-1.3-2.8-2.9c0-1.6,1.3-2.9,2.8-2.9h0h10.4
		c1.6,0,2.8,1.3,2.8,2.9S1239.5,800.4,1237.9,800.4C1237.9,800.4,1237.9,800.4,1237.9,800.4z"/>
	<path id="Trazado_309_1_" class="st4" d="M1242,776.4h-18.6c-0.5,0-1-0.4-1-1s0.4-1,1-1h18.6c0.5,0,1,0.4,1,1
		S1242.5,776.4,1242,776.4z"/>
	<path id="Trazado_310_1_" class="st4" d="M1242,779.4h-18.6c-0.5,0-1-0.4-1-1s0.4-1,1-1h18.6c0.5,0,1,0.4,1,1
		S1242.5,779.4,1242,779.4z"/>
	<path id="Trazado_311_1_" class="st4" d="M1242,782.4h-18.6c-0.5,0-1-0.4-1-1s0.4-1,1-1h18.6c0.5,0,1,0.4,1,1
		S1242.5,782.4,1242,782.4z"/>
	<path id="Trazado_312_1_" class="st4" d="M1242,785.3h-18.6c-0.5,0-1-0.4-1-1s0.4-1,1-1h18.6c0.5,0,1,0.4,1,1
		S1242.5,785.3,1242,785.3z"/>
	<path id="Trazado_313_1_" class="st4" d="M1229.3,788.3h-5.9c-0.5,0-1-0.4-1-1c0-0.6,0.4-1,1-1h5.9c0.5,0,1,0.4,1,1
		C1230.3,787.9,1229.9,788.3,1229.3,788.3z"/>
	<path id="Trazado_314_1_" class="st5" d="M1244.9,768.2h-24.4c-0.4,0-0.8-0.4-0.8-0.8v-18.8c0-0.5,0.4-0.8,0.8-0.8h24.4
		c0.4,0,0.8,0.4,0.8,0.8v18.8C1245.7,767.8,1245.3,768.2,1244.9,768.2L1244.9,768.2z"/>
	<g id="Grupo_66_1_" transform="translate(1369.478 806.43)" class="st6">
		<path id="Trazado_315_1_" d="M-120.3-43.6V-44C-120.3-43.9-120.3-43.8-120.3-43.6C-120.3-43.6-120.3-43.6-120.3-43.6z"/>
	</g>
</g>
</svg>
