<?xml version="1.0" encoding="utf-8"?>
<!-- Generator: Adobe Illustrator 25.0.0, SVG Export Plug-In . SVG Version: 6.00 Build 0)  -->
<svg version="1.1" id="Capa_1" xmlns="http://www.w3.org/2000/svg" xmlns:xlink="http://www.w3.org/1999/xlink" x="0px" y="0px"
	 viewBox="0 0 210.9 133.1" style="enable-background:new 0 0 210.9 133.1;" xml:space="preserve">
<style type="text/css">
	.st0{fill:#2F2E41;}
	.st1{fill:#FFB8B8;}
	.st2{fill:#AED2F2;}
	.st3{fill:#1D79F2;}
	.st4{fill:#116ADE;}
	.st5{fill:#3F3D56;}
	.st6{fill:none;stroke:#D0CDE1;stroke-width:2;stroke-miterlimit:10;}
	.st7{fill:#D0CDE1;}
</style>
<g id="Grupo_58" transform="translate(-1906.448 2338)">
	<ellipse id="Elipse_28" class="st0" cx="2026.3" cy="-2276.6" rx="4.8" ry="4.9"/>
	<path id="Trazado_186" class="st0" d="M2027.7-2281.4c2.6,0,4.8,2.2,4.8,4.9c0,0.8-0.2,1.6-0.6,2.3c1.7-2.1,1.3-5.2-0.8-6.9
		c-2.1-1.7-5.1-1.4-6.7,0.8c-0.2,0.2-0.3,0.5-0.5,0.7C2024.8-2280.7,2026.2-2281.4,2027.7-2281.4z"/>
	<ellipse id="Elipse_29" class="st0" cx="2017.4" cy="-2291.1" rx="14.1" ry="14.4"/>
	<path id="Trazado_187" class="st0" d="M2006.3-2300c5-5.8,13.7-6.5,19.5-1.5c-0.1-0.1-0.2-0.2-0.4-0.3c-5.8-5.3-14.7-4.8-19.9,1.2
		s-4.6,15.1,1.2,20.4c0.1,0.1,0.2,0.2,0.4,0.3C2001.6-2285.4,2001.2-2294.2,2006.3-2300z"/>
	<ellipse id="Elipse_30" class="st1" cx="2017.2" cy="-2286.1" rx="9.1" ry="9.3"/>
	<path id="Trazado_188" class="st1" d="M2010.8-2283.1c0,0,1.2,11.3-0.7,12.5s11,2.9,11,2.9s-1.9-12.2,2.9-15.4H2010.8
		L2010.8-2283.1z"/>
	<path id="Trazado_189" class="st2" d="M2022.3-2272.6c0,0,3.6-1.7-1.6-1.1c-3.3,0.3-6.6-0.3-9.5-1.7c0,0-1.6-1.6-1.8,0.1
		c-0.2,1.7,0.7,4.9-4.5,5.4c-5.3,0.5-10-1-11.9,2.7c-1.9,3.7-1,19.6-1,19.6s3.6,13.2,6.5,15.2c2.9,2,28-0.7,28-0.7l7.2-13.2v-15.4
		c0,0-1-5.4-7.6-3.9c0,0-4.3-1-4.1-3.2C2022-2271.1,2022.3-2272.6,2022.3-2272.6z"/>
	<path id="Trazado_190" class="st0" d="M1999.3-2223.1c0.1-0.7,0.2-1,0.2-1l-0.1-0.5l-0.8-5.5l-0.3-2.3c2.9-1.2,3.6-6.9,3.6-6.9
		l0.1-0.1l0.5-0.3l0,0l1.8-1.1l0,0l0.7,0.5l1.4,1c3.8,2.9,8.7,4.1,13.3,3.1c1.1-0.2,2.1-0.5,3.1-0.9l3.5-1.2l0.1,0l0.1,0l2,0.3l0,0
		l0.2,0l-0.5,3.3l-0.7,4.9c1.8,1,3.4,2.8,4.8,5.1c0.3,0.5,0.6,1,0.9,1.6c0.4,0.7,0.7,1.4,1.1,2.2c0,0.1,0.1,0.2,0.1,0.3
		c0.1,0.3,0.3,0.6,0.4,0.9h-36.4c0-0.3,0.1-0.6,0.1-0.9c0,0,0,0,0,0c0-0.1,0-0.2,0-0.3C1999-2221.8,1999.2-2222.6,1999.3-2223.1z"/>
	<path id="Trazado_191" class="st0" d="M1997.9-2270.2c1.6,3.4,2.2,7.3,1.7,11c-1,6.1,2.9,21.3,2.9,21.3l2.9-0.7
		c0,0-1.9-12.7-1.4-15.7s0.5-14.4-1.9-15.9C1999.6-2271.6,1997.9-2270.2,1997.9-2270.2z"/>
	<path id="Trazado_192" class="st0" d="M2025.7-2265.1l1,27.1l1.9,1.2c0,0,2.7-29.7,1.3-29.7h-2.9
		C2026.3-2266.5,2025.7-2265.9,2025.7-2265.1C2025.7-2265.1,2025.7-2265.1,2025.7-2265.1L2025.7-2265.1z"/>
	<ellipse id="Elipse_31" class="st3" cx="2003.7" cy="-2239.7" rx="1.2" ry="1.2"/>
	<ellipse id="Elipse_32" class="st3" cx="2027.6" cy="-2238.5" rx="1.2" ry="1.2"/>
	<path id="Trazado_193" class="st0" d="M2009.5-2297.7v9.3h2.1l2.7-2.9l-0.4,2.9h9.3l-0.6-2.9l1.1,2.9h1.5v-9.3H2009.5z"/>
	<ellipse id="Elipse_33" class="st1" cx="2008" cy="-2288" rx="0.7" ry="1.3"/>
	<ellipse id="Elipse_34" class="st1" cx="2026.4" cy="-2288" rx="0.7" ry="1.3"/>
	<path id="Trazado_194" class="st1" d="M2031.3-2238.6c0,0-10.9-2.1-11.6,1.6c-0.7,3.7,12.1,2.1,12.1,2.1L2031.3-2238.6z"/>
	<path id="Trazado_195" class="st2" d="M2031.1-2263.8c0,0,26,21.3,21.3,26.4c-4.8,5.1-22.9,3.7-22.9,3.7l1.2-6.1l10.5-1.2l-5.3-5.4
		l-4.8,0.5V-2263.8z"/>
	<path id="Trazado_196" class="st1" d="M1992.6-2228.3l3.3,2.7c0,0,2.4,7.6,6,5.4c3.6-2.2-3.3-10-3.3-10l-4.1-1.5L1992.6-2228.3z"/>
	<path id="Trazado_197" class="st2" d="M1996-2267.7l-3.3,1c0,0-23.2,17.6-24.1,22.5c-1,4.9,4.5,7.6,4.5,7.6l20.8,10l2.2-5.9
		l-9.8-5.1c0,0,0.7-1.5-2.2-1.7c-2.9-0.2-3.3-3.4-3.3-3.4s5.7-9.1,8.8-7.1c3.1,2,4.1,3.4,4.1,3.4L1996-2267.7z"/>
	<path id="Trazado_198" class="st4" d="M2043.6-2222.3v0.8c0,0.2,0,0.4-0.1,0.7c0,0.1-0.1,0.2-0.1,0.3c-0.3,0.5-0.9,0.9-1.5,0.9
		h-58.9c-0.6,0-1.2-0.3-1.5-0.9c0-0.1-0.1-0.2-0.1-0.3c-0.1-0.2-0.1-0.4-0.1-0.7v-0.8c0-1,0.8-1.8,1.8-1.8l0,0h3.4v-0.4
		c0,0,0-0.1,0.1-0.1l0,0h1.8c0,0,0.1,0,0.1,0.1l0,0v0.4h1.1v-0.4c0,0,0-0.1,0.1-0.1l0,0h1.8c0,0,0.1,0,0.1,0.1l0,0v0.4h1.1v-0.4
		c0,0,0-0.1,0.1-0.1l0,0h1.8c0,0,0.1,0,0.1,0.1l0,0v0.4h1.1v-0.4c0,0,0-0.1,0.1-0.1l0,0h1.8c0,0,0.1,0,0.1,0.1l0,0v0.4h1.1v-0.4
		c0,0,0-0.1,0.1-0.1l0,0h1.8c0,0,0.1,0,0.1,0.1l0,0v0.4h1.1v-0.4c0,0,0-0.1,0.1-0.1l0,0h1.8c0,0,0.1,0,0.1,0.1l0,0v0.4h1.1v-0.4
		c0,0,0-0.1,0.1-0.1l0,0h13.9c0,0,0.1,0,0.1,0.1l0,0v0.4h1.1v-0.4c0,0,0-0.1,0.1-0.1l0,0h1.8c0,0,0.1,0,0.1,0.1v0.4h1.1v-0.4
		c0,0,0-0.1,0.1-0.1l0,0h1.8c0,0,0.1,0,0.1,0.1l0,0v0.4h1.1v-0.4c0,0,0-0.1,0.1-0.1l0,0h1.8c0,0,0.1,0,0.1,0.1l0,0v0.4h1.1v-0.4
		c0,0,0-0.1,0.1-0.1l0,0h1.8c0,0,0.1,0,0.1,0.1v0.4h1.1v-0.4c0,0,0-0.1,0.1-0.1l0,0h1.8c0,0,0.1,0,0.1,0.1l0,0v0.4h1.1v-0.4
		c0,0,0-0.1,0.1-0.1l0,0h1.8c0,0,0.1,0,0.1,0.1l0,0v0.4h5.2C2042.8-2224.1,2043.6-2223.3,2043.6-2222.3L2043.6-2222.3z"/>
	<rect id="Rectángulo_46" x="1964" y="-2220.8" class="st5" width="96.7" height="0.3"/>
	<path id="Trazado_199" class="st4" d="M2038.8-2256.8h-21.9v-0.5h-10v0.5h-22c-0.8,0-1.5,0.7-1.5,1.5v30.8c0,0.8,0.7,1.5,1.5,1.5
		h53.9c0.8,0,1.5-0.7,1.5-1.5v-30.8C2040.3-2256.1,2039.6-2256.8,2038.8-2256.8z"/>
	<path id="Elipse_35" class="st6" d="M2011.9-2249.4c1.8,0,3.3,1.5,3.3,3.4c0,1.9-1.5,3.4-3.3,3.4c-1.8,0-3.3-1.5-3.3-3.4
		C2008.6-2247.9,2010.1-2249.4,2011.9-2249.4z"/>
	<path id="Elipse_36" class="st7" d="M2011.8-2248.6c1.6,0,2.8,1.2,2.8,2.6c0,1.5-1.3,2.6-2.8,2.6s-2.8-1.2-2.8-2.6
		C2009-2247.5,2010.3-2248.6,2011.8-2248.6z"/>
</g>
</svg>
