<?xml version="1.0" encoding="utf-8"?>
<!-- Generator: Adobe Illustrator 25.0.0, SVG Export Plug-In . SVG Version: 6.00 Build 0)  -->
<svg version="1.1" id="Capa_1" xmlns="http://www.w3.org/2000/svg" xmlns:xlink="http://www.w3.org/1999/xlink" x="0px" y="0px"
	 viewBox="0 0 210.9 133.1" style="enable-background:new 0 0 210.9 133.1;" xml:space="preserve">
<style type="text/css">
	.st0{fill:#E6E6E6;}
	.st1{fill:#FFFFFF;}
	.st2{fill:#2F2E41;}
	.st3{fill:#A0616A;}
	.st4{fill:#1D79F2;}
</style>
<g id="undraw_just_browsing_m0vg" transform="translate(0 -0.003)">
	<ellipse id="Elipse_42" class="st0" cx="105.4" cy="118.8" rx="16.9" ry="0.8"/>
	<path id="Trazado_288" class="st0" d="M118.9,118.1c2.1-2.1,12.1-12.3,5-13.9c-5.3-1.3-5.9,5.7-5.7,10.3c-0.9-3.1-2.5-6.8-5.4-5.2
		c-4.2,2.3,3.7,7.5,5.7,8.8c0,0.3,0.1,0.4,0.1,0.4s0.1-0.1,0.2-0.2c0.1,0.1,0.2,0.1,0.2,0.1S119,118.3,118.9,118.1z"/>
	<rect id="Rectángulo_47" x="57.1" y="34.7" class="st0" width="96.6" height="53.2"/>
	<rect id="Rectángulo_48" x="59.9" y="41.3" class="st1" width="91.1" height="43.4"/>
	<rect id="Rectángulo_49" x="125.5" y="45.8" class="st0" width="19.6" height="9.5"/>
	<rect id="Rectángulo_50" x="125.5" y="58.3" class="st0" width="19.6" height="9.5"/>
	<rect id="Rectángulo_51" x="125.5" y="70.8" class="st0" width="19.6" height="9.5"/>
	<rect id="Rectángulo_52" x="65.8" y="45.8" class="st0" width="19.6" height="9.5"/>
	<rect id="Rectángulo_53" x="65.8" y="58.3" class="st0" width="19.6" height="9.5"/>
	<rect id="Rectángulo_54" x="65.8" y="70.8" class="st0" width="19.6" height="9.5"/>
	<ellipse id="Elipse_43" class="st2" cx="106.6" cy="48" rx="4" ry="3.4"/>
	<path id="Trazado_289" class="st3" d="M120.8,37.1l1.3-1c0.7-0.5,0.8-1.3,0.2-1.9c0,0,0-0.1-0.1-0.1l0,0c-0.6-0.5-1.6-0.5-2.2,0
		c-0.2,0.1-0.3,0.3-0.4,0.5L119,36l-5.1,7.5l-2.6,6.1l2.1,2.2l2.8-7.5L120.8,37.1z"/>
	<path id="Trazado_290" class="st3" d="M92.4,37.1l-1.3-1c-0.7-0.5-0.8-1.3-0.2-1.9c0,0,0-0.1,0.1-0.1l0,0c0.6-0.5,1.6-0.5,2.2,0
		c0.2,0.1,0.3,0.3,0.4,0.5l0.6,1.4l5.1,7.5l2.8,6.2l-2.3,2.1L97,44.3L92.4,37.1z"/>
	<ellipse id="Elipse_44" class="st2" cx="106.7" cy="44.5" rx="2" ry="1.8"/>
	<path id="Trazado_291" class="st3" d="M106.9,99.4l-1.8-0.1l0.1-21.4l4.5,0.9L106.9,99.4z"/>
	<path id="Trazado_292" class="st2" d="M104.8,104.7L104.8,104.7c-0.7,0-1.4-0.4-1.6-1c-0.4-1-0.2-2,0.5-2.9l-0.2-1.4
		c-0.1-0.4,0.1-0.9,0.4-1.2l1.2-1.2v1.5c0.9-0.6,1.4-0.7,2.1-0.1l-0.7,3l0.2,1.6c0.1,0.8-0.6,1.6-1.6,1.7
		C105,104.7,104.9,104.7,104.8,104.7L104.8,104.7z"/>
	<path id="Trazado_293" class="st3" d="M109.8,56l-7.1-0.1c1-0.8,2.5-4.1,2.2-5h3.5C108,51.8,108.8,55.1,109.8,56z"/>
	<path id="Trazado_294" class="st4" d="M111.7,67.2l-9.9-2.5l0.3-3.7l-0.9-3.7c0.1-0.4-2.2-5.4-2-5.8c0.5-1.5,1.7-1.3,2.6-2.4
		c0.1-0.2,1.3,1.1,2,1.9c0.1,0.1,0.1,0.2,0.2,0.3c0.3,0.4,0.4,0.9,0.3,1.3v0l0,0c-0.4,1.2,0.5,0.7,2,0.7l0,0c1.2,0,2.3,0.9,2.3-0.2
		l0,0c0-0.1,0-0.1,0-0.2c0-0.5,0.1-1.1,0.4-1.5c0.1-0.2,0.2-0.4,0.4-0.6c0.8-1,2-2.3,2-2.2c0.3,0.8,1.6,1.5,2.1,2.9
		c0.1,0.2-0.4,1.5-0.3,1.8c0.2,1.6-0.2,2.5-0.3,3.7C111.9,60.4,111.5,63.8,111.7,67.2z"/>
	<path id="Trazado_295" class="st2" d="M110.3,79.7l-5.6-1.5l-0.1-4.4l-4.4-7.3l1.7-2.4l9.7,2.2C112.3,70,111.5,74.7,110.3,79.7z"/>
	<path id="Trazado_296" class="st2" d="M107.7,73.9h-3.1L99,67l2-1.5L107.7,73.9z"/>
	<path id="Trazado_297" class="st2" d="M109.1,73.8h-5.1c-1.2,0-2.4-0.3-3.4-0.9c-2.2-1.3-3-3.8-1.7-5.9l0,0l10.2,0.4V73.8z"/>
	<path id="Trazado_298" class="st3" d="M104.7,68.9l-4.5-0.1c0,0,0-0.1,0-0.1c-0.6-1.5,0.3-3.1,2-3.6c0.2-0.1,0.3-0.1,0.5-0.2
		c1.4-0.4,2.9,0.2,3.4,1.4c0.1,0.2,0.1,0.5,0.1,0.7c0,0.3,0,0.6-0.1,0.9C106,68.5,105.4,68.9,104.7,68.9z"/>
	<path id="Trazado_299" class="st3" d="M102.3,80.6h-1.8l-0.3-12.4l5-0.1L102.3,80.6z"/>
	<path id="Trazado_300" class="st2" d="M100.3,86.1L100.3,86.1c-0.7,0-1.4-0.4-1.6-1c-0.4-1-0.2-2,0.5-2.9l-0.2-1.4
		c-0.1-0.4,0.1-0.9,0.4-1.2l1.2-1.2v1.5c0.9-0.6,1.4-0.7,2.1-0.1l-0.7,3l0.2,1.6c0.1,0.8-0.6,1.6-1.6,1.7
		C100.4,86.1,100.3,86.1,100.3,86.1L100.3,86.1z"/>
	<ellipse id="Elipse_45" class="st3" cx="106.7" cy="48.9" rx="3.5" ry="3"/>
	<path id="Trazado_301" class="st2" d="M109.7,47.6c0,1.5-1.6-0.7-3.4-0.7s-3.1,2.2-3.1,0.7s1.4-2.8,3.2-2.8S109.7,46,109.7,47.6
		L109.7,47.6z"/>
	<rect id="Rectángulo_55" x="57.1" y="34.6" class="st4" width="96.6" height="3.5"/>
	<ellipse id="Elipse_46" class="st1" cx="60.2" cy="36.4" rx="0.8" ry="0.7"/>
	<ellipse id="Elipse_47" class="st1" cx="63" cy="36.4" rx="0.8" ry="0.7"/>
	<ellipse id="Elipse_48" class="st1" cx="65.9" cy="36.4" rx="0.8" ry="0.7"/>
</g>
</svg>
