<?xml version="1.0" encoding="utf-8"?>
<!-- Generator: Adobe Illustrator 24.3.0, SVG Export Plug-In . SVG Version: 6.00 Build 0)  -->
<svg version="1.1" id="Capa_1" xmlns="http://www.w3.org/2000/svg" xmlns:xlink="http://www.w3.org/1999/xlink" x="0px" y="0px"
	 viewBox="0 0 285 270" style="enable-background:new 0 0 285 270;" xml:space="preserve">
<style type="text/css">
	.st0{fill:#E6E6E6;}
	.st1{fill:#FFFFFF;}
	.st2{fill:#2F2E41;}
	.st3{fill:#A0616A;}
	.st4{fill:#1D79F2;}
</style>
<g id="undraw_just_browsing_m0vg" transform="translate(0 -0.003)">
	<ellipse id="Elipse_42" class="st0" cx="136.66" cy="232.51" rx="31.49" ry="1.81"/>
	<path id="Trazado_288" class="st0" d="M161.89,231.01c3.95-4.49,22.55-26.61,9.33-30.26c-9.93-2.74-11.03,12.33-10.7,22.44
		c-1.59-6.81-4.67-14.77-10.1-11.26c-7.81,5.06,6.83,16.26,10.65,19.01c0.06,0.56,0.1,0.87,0.1,0.87s0.16-0.17,0.44-0.49
		c0.22,0.15,0.34,0.23,0.34,0.23S161.93,231.36,161.89,231.01z"/>
	<rect id="Rectángulo_47" x="46.44" y="49.79" class="st0" width="180.52" height="115.61"/>
	<rect id="Rectángulo_48" x="51.6" y="64.29" class="st1" width="170.2" height="94.27"/>
	<rect id="Rectángulo_49" x="174.09" y="73.95" class="st0" width="36.68" height="20.63"/>
	<rect id="Rectángulo_50" x="174.09" y="101.11" class="st0" width="36.68" height="20.63"/>
	<rect id="Rectángulo_51" x="174.09" y="128.27" class="st0" width="36.68" height="20.63"/>
	<rect id="Rectángulo_52" x="62.62" y="73.95" class="st0" width="36.68" height="20.63"/>
	<rect id="Rectángulo_53" x="62.62" y="101.11" class="st0" width="36.68" height="20.63"/>
	<rect id="Rectángulo_54" x="62.62" y="128.27" class="st0" width="36.68" height="20.63"/>
	<circle id="Elipse_43" class="st2" cx="138.75" cy="78.71" r="7.46"/>
	<path id="Trazado_289" class="st3" d="M165.33,54.99l2.49-2.09c1.25-1.05,1.41-2.9,0.36-4.15c-0.05-0.06-0.09-0.11-0.14-0.16l0,0
		c-1.13-1.17-3-1.19-4.16-0.06c-0.3,0.29-0.54,0.65-0.69,1.04L162,52.61l-9.52,16.35l-4.84,13.25l3.89,4.68l5.24-16.19L165.33,54.99
		z"/>
	<path id="Trazado_290" class="st3" d="M112.33,54.99l-2.49-2.09c-1.25-1.05-1.41-2.9-0.36-4.15c0.05-0.06,0.09-0.11,0.14-0.16l0,0
		c1.13-1.17,3-1.19,4.16-0.06c0.3,0.29,0.54,0.65,0.69,1.04l1.19,3.04l9.52,16.35l5.32,13.41l-4.36,4.52l-5.24-16.19L112.33,54.99z"
		/>
	<circle id="Elipse_44" class="st2" cx="139.07" cy="71.26" r="3.81"/>
	<path id="Trazado_291" class="st3" d="M139.38,190.44l-3.41-0.24l0.16-46.5l8.41,2.06L139.38,190.44z"/>
	<path id="Trazado_292" class="st2" d="M135.56,202L135.56,202c-1.38-0.03-2.6-0.92-3.06-2.22c-0.72-2.11-0.37-4.44,0.93-6.24
		l-0.42-2.96c-0.13-0.94,0.15-1.9,0.77-2.62l2.19-2.52v3.17c1.6-1.4,2.59-1.45,3.97-0.32l-1.27,6.51l0.31,3.57
		c0.16,1.84-1.2,3.46-3.04,3.62C135.81,201.99,135.68,202,135.56,202L135.56,202z"/>
	<path id="Trazado_293" class="st3" d="M144.86,96.09l-13.33-0.32c1.89-1.84,4.59-8.88,4.13-10.95h6.51
		C141.38,86.96,142.89,94.2,144.86,96.09z"/>
	<path id="Trazado_294" class="st4" d="M148.35,120.53l-18.41-5.4l0.64-7.93l-1.59-8.09c0.16-0.88-4.03-11.72-3.81-12.54
		c0.88-3.25,3.17-2.8,4.84-5.16c0.27-0.38,2.39,2.31,3.75,4.13c0.16,0.28,0.27,0.47,0.35,0.6c0.51,0.87,0.74,1.88,0.64,2.88v0.02
		l0,0c-0.75,2.59,0.97,1.53,3.67,1.57l0,0c2.29,0.04,4.36,1.85,4.36-0.44l0,0c0-0.13-0.01-0.26-0.02-0.4
		c-0.05-1.17,0.23-2.33,0.8-3.36c0.22-0.44,0.46-0.86,0.73-1.27c1.55-2.19,3.68-5.1,3.8-4.69c0.49,1.74,3.01,3.2,3.89,6.27
		c0.14,0.47-0.68,3.34-0.64,3.81c0.35,3.48-0.32,5.4-0.64,8.09C148.76,105.75,147.95,113.15,148.35,120.53z"/>
	<path id="Trazado_295" class="st2" d="M145.81,147.67l-10.48-3.17l-0.16-9.52l-8.25-15.87l3.17-5.24l18.09,4.76
		C149.42,126.54,148.06,136.71,145.81,147.67z"/>
	<path id="Trazado_296" class="st2" d="M140.89,134.97h-5.71l-10.63-14.92l3.81-3.17L140.89,134.97z"/>
	<path id="Trazado_297" class="st2" d="M143.59,134.82h-9.49c-2.25,0-4.45-0.67-6.32-1.93c-4.14-2.86-5.52-8.35-3.23-12.83l0,0
		l19.04,0.95L143.59,134.82z"/>
	<path id="Trazado_298" class="st3" d="M135.28,124.12l-8.36-0.25c-0.03-0.08-0.06-0.16-0.09-0.24c-1.06-3.19,0.54-6.65,3.65-7.91
		c0.31-0.13,0.63-0.25,0.95-0.36c2.6-0.91,5.45,0.47,6.36,3.07c0.17,0.5,0.27,1.03,0.28,1.56c0.01,0.64-0.03,1.27-0.12,1.9
		C137.76,123.2,136.61,124.16,135.28,124.12z"/>
	<path id="Trazado_299" class="st3" d="M130.73,149.57h-3.33l-0.48-26.98l9.36-0.16L130.73,149.57z"/>
	<path id="Trazado_300" class="st2" d="M126.99,161.43L126.99,161.43c-1.38-0.03-2.6-0.92-3.06-2.22c-0.72-2.11-0.37-4.44,0.93-6.24
		l-0.42-2.95c-0.13-0.94,0.15-1.9,0.77-2.62l2.19-2.52v3.17c1.6-1.4,2.59-1.45,3.97-0.32l-1.27,6.51l0.31,3.57
		c0.16,1.84-1.2,3.46-3.04,3.62C127.24,161.43,127.11,161.43,126.99,161.43L126.99,161.43z"/>
	<circle id="Elipse_45" class="st3" cx="138.99" cy="80.7" r="6.51"/>
	<path id="Trazado_301" class="st2" d="M144.7,77.84c0,3.33-3.02-1.43-6.35-1.43s-5.71,4.76-5.71,1.43c0-3.33,2.7-6.03,6.03-6.03
		C142,71.81,144.7,74.51,144.7,77.84L144.7,77.84z"/>
	<rect id="Rectángulo_55" x="46.36" y="49.69" class="st4" width="180.52" height="7.67"/>
	<circle id="Elipse_46" class="st1" cx="52.06" cy="53.61" r="1.42"/>
	<circle id="Elipse_47" class="st1" cx="57.45" cy="53.61" r="1.42"/>
	<circle id="Elipse_48" class="st1" cx="62.85" cy="53.61" r="1.42"/>
</g>
</svg>
