<?xml version="1.0" encoding="utf-8"?>
<!-- Generator: Adobe Illustrator 25.0.0, SVG Export Plug-In . SVG Version: 6.00 Build 0)  -->
<svg version="1.1" id="Capa_1" xmlns="http://www.w3.org/2000/svg" xmlns:xlink="http://www.w3.org/1999/xlink" x="0px" y="0px"
	 viewBox="0 0 162.1 109.4" style="enable-background:new 0 0 162.1 109.4;" xml:space="preserve">
<style type="text/css">
	.st0{opacity:0.1;fill:#1D79F2;enable-background:new    ;}
	.st1{fill:#464353;}
	.st2{fill:#FFFFFF;}
	.st3{fill:#FFFFFF;stroke:#FFFFFF;stroke-miterlimit:10;}
	.st4{opacity:0.5;fill:#1D79F2;enable-background:new    ;}
	.st5{fill:#1D79F2;}
	.st6{fill:#FFFFFF;stroke:#FFFFFF;stroke-width:0.25;stroke-miterlimit:10;}
	.st7{fill:#504F60;}
	.st8{opacity:0.1;enable-background:new    ;}
	.st9{fill:#FFFFFF;stroke:#707070;}
	.st10{fill:#3F3D56;}
	.st11{fill:#FFFFFF;stroke:#33313F;stroke-width:0.25;stroke-miterlimit:10;}
	.st12{fill:none;stroke:#33313F;stroke-width:0.25;stroke-linecap:round;stroke-miterlimit:10;}
	.st13{fill:#FFFFFF;stroke:#33313F;stroke-width:0.25;stroke-linecap:round;stroke-miterlimit:10;}
	.st14{fill:none;stroke:#33313F;stroke-width:0.25;stroke-miterlimit:10;}
</style>
<g id="Grupo_94" transform="translate(-1218 -700)">
	<g id="Grupo_91" transform="translate(174 76.218)">
		<path id="Trazado_413" class="st0" d="M1183.9,659.4c-1.3-2.5-2.9-4.7-4.9-6.7l-67.4-0.6l55.5-6.7c-3.6-1.2-7.4-1.9-11.3-1.9
			c-5.3-3.7-12.2-5.9-19.7-5.9c-6.3-0.1-12.5,1.6-18,4.8c-4.6-2-9.5-3-14.4-3c-15,0-27.5,8.9-30.3,20.8L1183.9,659.4z"/>
		<path id="Trazado_414" class="st0" d="M1186.3,669.3c0-3.2-0.7-6.4-2.1-9.4l-116.8,10.6c-1.2,1.8-2.1,3.8-2.7,5.9l36.2,4.6
			l-37,3.4c1.1,13.4,14.5,24,30.8,24c8.2,0,15.7-2.7,21.2-7.1c5.5,4.5,13.1,7.2,21.4,7.2c12.3,0,22.9-6,27.9-14.8
			c9.9-2.7,17.6-9.5,20.3-18l-45.7-6.1h46.7L1186.3,669.3L1186.3,669.3z"/>
	</g>
	<g id="Grupo_92" transform="translate(398 172.582)">
		<path id="Rectángulo_153" class="st1" d="M888.7,552.6H924c3.9,0,7,3.2,7,7.1v46.2c0,3.9-3.1,7.1-7,7.1h-35.3c-3.9,0-7-3.2-7-7.1
			v-46.2C881.7,555.8,884.8,552.6,888.7,552.6z"/>
		<rect id="Rectángulo_154" x="885.9" y="558.7" class="st0" width="40.8" height="48.3"/>
		<ellipse id="Elipse_129" class="st2" cx="906.3" cy="610.1" rx="1.7" ry="1.8"/>
		<path id="Trazado_439" class="st2" d="M906.3,556.9c-0.5,0-0.8-0.4-0.8-0.8c0-0.5,0.4-0.8,0.8-0.8c0.5,0,0.8,0.4,0.8,0.8l0,0
			C907.1,556.6,906.8,556.9,906.3,556.9z"/>
		<path id="Trazado_440" class="st2" d="M906.3,555.3c0.4,0,0.8,0.4,0.8,0.8s-0.3,0.8-0.8,0.8s-0.8-0.4-0.8-0.8
			S905.9,555.3,906.3,555.3L906.3,555.3 M906.3,555.2c-0.5,0-0.9,0.4-0.9,0.9c0,0.5,0.4,0.9,0.9,0.9c0.5,0,0.9-0.4,0.9-0.9
			c0-0.2-0.1-0.5-0.3-0.6C906.8,555.3,906.5,555.2,906.3,555.2L906.3,555.2z"/>
		<path id="Rectángulo_155" class="st3" d="M889.3,573.6h5.4c0.8,0,1.5,0.7,1.5,1.5v8.6c0,0.9-0.7,1.5-1.5,1.5h-5.4
			c-0.8,0-1.5-0.7-1.5-1.5v-8.6C887.8,574.3,888.5,573.6,889.3,573.6z"/>
		<path id="Rectángulo_156" class="st4" d="M890.4,576.6h3.2c1,0,1.8,0.8,1.8,1.9l0,0c0,1-0.8,1.9-1.8,1.9h-3.2
			c-1,0-1.8-0.8-1.8-1.9l0,0C888.6,577.4,889.4,576.6,890.4,576.6z"/>
		<path id="Rectángulo_157" class="st5" d="M890.3,581.8h3.4c0.2,0,0.3,0.1,0.3,0.3l0,0c0,0.2-0.1,0.3-0.3,0.3h-3.4
			c-0.2,0-0.3-0.1-0.3-0.3l0,0C890,581.9,890.2,581.8,890.3,581.8z"/>
		<path id="Rectángulo_158" class="st3" d="M903.6,573.6h5.4c0.8,0,1.5,0.7,1.5,1.5v8.6c0,0.9-0.7,1.5-1.5,1.5h-5.4
			c-0.8,0-1.5-0.7-1.5-1.5v-8.6C902.1,574.3,902.8,573.6,903.6,573.6z"/>
		<path id="Rectángulo_159" class="st4" d="M904.9,575.5h3c0.3,0,0.5,0.2,0.5,0.5v1.1c0,0.3-0.2,0.5-0.5,0.5h-3
			c-0.3,0-0.5-0.2-0.5-0.5V576C904.3,575.7,904.6,575.5,904.9,575.5z"/>
		<path id="Rectángulo_160" class="st5" d="M904,579.7h4.6c0.2,0,0.3,0.1,0.3,0.3l0,0c0,0.2-0.1,0.3-0.3,0.3H904
			c-0.2,0-0.3-0.1-0.3-0.3l0,0C903.7,579.8,903.9,579.7,904,579.7z"/>
		<path id="Rectángulo_161" class="st5" d="M904,580.8h4.6c0.2,0,0.3,0.1,0.3,0.3l0,0c0,0.2-0.1,0.3-0.3,0.3H904
			c-0.2,0-0.3-0.1-0.3-0.3l0,0C903.7,580.9,903.9,580.8,904,580.8z"/>
		<path id="Rectángulo_162" class="st3" d="M917.9,565.3h5.4c0.8,0,1.5,0.7,1.5,1.5v8.6c0,0.9-0.7,1.5-1.5,1.5h-5.4
			c-0.8,0-1.5-0.7-1.5-1.5v-8.6C916.4,566,917,565.3,917.9,565.3z"/>
		<path id="Rectángulo_163" class="st4" d="M918.3,567.1h4.5c0.3,0,0.5,0.2,0.5,0.5v1.6c0,0.3-0.2,0.5-0.5,0.5h-4.5
			c-0.3,0-0.5-0.2-0.5-0.5v-1.6C917.8,567.4,918.1,567.1,918.3,567.1z"/>
		<path id="Rectángulo_164" class="st4" d="M918.3,570.9h4.5c0.3,0,0.5,0.2,0.5,0.5v1.6c0,0.3-0.2,0.5-0.5,0.5h-4.5
			c-0.3,0-0.5-0.2-0.5-0.5v-1.6C917.8,571.2,918.1,570.9,918.3,570.9z"/>
		<path id="Rectángulo_165" class="st5" d="M917.8,575.7h1c0.2,0,0.4,0.2,0.4,0.4l0,0c0,0.2-0.2,0.4-0.4,0.4h-1
			c-0.2,0-0.4-0.2-0.4-0.4l0,0C917.4,575.8,917.6,575.7,917.8,575.7z"/>
		<path id="Rectángulo_166" class="st5" d="M920.1,575.7h1c0.2,0,0.4,0.2,0.4,0.4l0,0c0,0.2-0.2,0.4-0.4,0.4h-1
			c-0.2,0-0.4-0.2-0.4-0.4l0,0C919.7,575.8,919.9,575.7,920.1,575.7z"/>
		<path id="Rectángulo_167" class="st5" d="M922.4,575.7h1c0.2,0,0.4,0.2,0.4,0.4l0,0c0,0.2-0.2,0.4-0.4,0.4h-1
			c-0.2,0-0.4-0.2-0.4-0.4l0,0C922,575.8,922.1,575.7,922.4,575.7z"/>
		<path id="Rectángulo_168" class="st3" d="M917.8,581.9h5.4c0.8,0,1.5,0.7,1.5,1.5v8.6c0,0.9-0.7,1.5-1.5,1.5h-5.4
			c-0.8,0-1.5-0.7-1.5-1.5v-8.6C916.3,582.6,917,581.9,917.8,581.9z"/>
		<path id="Rectángulo_169" class="st4" d="M917.5,583.3h1.5c0.3,0,0.5,0.2,0.5,0.5v1.6c0,0.3-0.2,0.5-0.5,0.5h-1.5
			c-0.3,0-0.5-0.2-0.5-0.5v-1.6C917,583.6,917.2,583.3,917.5,583.3z"/>
		<path id="Rectángulo_170" class="st5" d="M918.3,587.5h4.6c0.2,0,0.3,0.1,0.3,0.3l0,0c0,0.2-0.1,0.3-0.3,0.3h-4.6
			c-0.2,0-0.3-0.1-0.3-0.3l0,0C918,587.7,918.1,587.5,918.3,587.5z"/>
		<path id="Rectángulo_171" class="st5" d="M918.3,588.7h4.6c0.2,0,0.3,0.1,0.3,0.3l0,0c0,0.2-0.1,0.3-0.3,0.3h-4.6
			c-0.2,0-0.3-0.1-0.3-0.3l0,0C918,588.8,918.1,588.7,918.3,588.7z"/>
		<path id="Rectángulo_172" class="st5" d="M918.3,589.9h4.6c0.2,0,0.3,0.1,0.3,0.3l0,0c0,0.2-0.1,0.3-0.3,0.3h-4.6
			c-0.2,0-0.3-0.1-0.3-0.3l0,0C918,590,918.1,589.9,918.3,589.9z"/>
		<path id="Trazado_441" class="st6" d="M901.1,579.2l-0.1,0.1l-1,0.5l-0.1,0c0,0-0.1,0-0.1,0v0c0,0,0,0,0,0v-0.3c0,0,0-0.1,0-0.1
			h-2.5c0,0-0.1,0-0.1-0.1V579c0,0,0-0.1,0.1-0.1h2.6c0,0,0,0,0-0.1v-0.3c0,0,0,0,0,0c0,0,0,0,0.1,0h0l0.1,0l1,0.5L901.1,579.2
			C901.2,579.1,901.2,579.2,901.1,579.2C901.2,579.2,901.1,579.2,901.1,579.2L901.1,579.2z"/>
		<path id="Trazado_442" class="st6" d="M915.3,576.6l-0.1,0.1l-0.7,1l-0.1,0.1c0,0-0.1,0-0.1,0l0,0c0,0,0,0,0,0l-0.1-0.3
			c0,0,0,0-0.1,0l-2.3,1.2c0,0-0.1,0-0.1,0c0,0,0,0,0,0l-0.2-0.4c0,0,0-0.1,0-0.1c0,0,0,0,0,0l2.3-1.2c0,0,0,0,0-0.1c0,0,0,0,0,0
			l-0.1-0.3c0,0,0,0,0,0c0,0,0-0.1,0-0.1c0,0,0,0,0,0h0.1l1.2,0L915.3,576.6C915.3,576.5,915.3,576.5,915.3,576.6
			C915.3,576.5,915.3,576.6,915.3,576.6L915.3,576.6z"/>
		<path id="Trazado_443" class="st6" d="M915.3,581.6h-1.4c0,0,0,0,0-0.1v0c0,0,0,0,0,0l0.1-0.3c0,0,0-0.1,0-0.1l0,0l-2.3-1.1
			c0,0,0,0,0-0.1l0,0l0.2-0.4c0,0,0,0,0.1,0c0,0,0,0,0,0l2.3,1.1c0,0,0.1,0,0.1,0l0,0l0.1-0.3c0,0,0,0,0.1,0c0,0,0,0,0,0l0.1,0.1
			l0.7,0.9L915.3,581.6C915.4,581.5,915.4,581.5,915.3,581.6C915.4,581.6,915.3,581.6,915.3,581.6L915.3,581.6z"/>
		<path id="Trazado_444" class="st7" d="M873.3,603.3l0,0.3l-0.5,17.6H872l0.4-17.6l0-0.3L873.3,603.3z"/>
		<path id="Trazado_445" class="st8" d="M873.3,603.3l0,0.3l-0.5,17.6H872l0.4-17.6l0-0.3L873.3,603.3z"/>
		<path id="Trazado_446" class="st7" d="M878.1,618.2l-0.6,0l-9.2,0h-0.5l0.3-0.8h9.9L878.1,618.2z"/>
		<path id="Trazado_447" class="st8" d="M873.3,603.3l0,0.3h-0.9l0-0.3L873.3,603.3z"/>
		<rect id="Rectángulo_173" x="872.1" y="602.9" class="st7" width="1.5" height="0.6"/>
		<path id="Trazado_448" class="st8" d="M868.4,617.4l-0.1,0.8h-0.5l0.3-0.8H868.4z"/>
		<path id="Trazado_449" class="st7" d="M869.7,602.9l0,0.3l-2,20.4l-0.9,0l2.1-20.4l0-0.2L869.7,602.9z"/>
		<path id="Trazado_450" class="st8" d="M878.1,618.2l-0.6,0l-0.1-0.8h0.6L878.1,618.2z"/>
		<path id="Trazado_451" class="st7" d="M879,623.5l-0.9,0l-2-20.4l0-0.3l0.8,0l0,0.2L879,623.5z"/>
		<rect id="Rectángulo_174" x="862.5" y="582.8" class="st9" width="20.5" height="20"/>
		<path id="Rectángulo_175" class="st9" d="M859.4,582.8h26.6c0.8,0,1.5,0.7,1.5,1.5v17.1c0,0.8-0.7,1.5-1.5,1.5h-26.6
			c-0.8,0-1.5-0.7-1.5-1.5v-17.1C858,583.4,858.6,582.8,859.4,582.8z"/>
		<path id="Trazado_452" class="st7" d="M873.1,576.1v4.8h-0.8v-4.8c0-0.2,0.2-0.4,0.4-0.4C873,575.7,873.1,575.9,873.1,576.1
			L873.1,576.1L873.1,576.1z"/>
		<rect id="Rectángulo_176" x="872.3" y="580.5" class="st8" width="0.8" height="0.4"/>
		<path id="Trazado_453" class="st7" d="M873.4,580.8v1.6H872v-1.6c0-0.1,0.1-0.2,0.2-0.2h1C873.4,580.6,873.4,580.7,873.4,580.8
			C873.4,580.8,873.4,580.8,873.4,580.8L873.4,580.8z"/>
		<ellipse id="Elipse_130" class="st8" cx="872.7" cy="581.6" rx="0.3" ry="0.3"/>
		<ellipse id="Elipse_131" class="st10" cx="872.7" cy="581.6" rx="0.3" ry="0.3"/>
		<rect id="Rectángulo_177" x="872" y="582.2" class="st8" width="1.4" height="0.2"/>
		<rect id="Rectángulo_178" x="871.4" y="582.5" class="st8" width="2.6" height="0.4"/>
		<rect id="Rectángulo_179" x="871.4" y="582.3" class="st7" width="2.6" height="0.4"/>
		<path id="Trazado_454" class="st8" d="M867.6,602.3h10.7c0.3,0,0.6,0.3,0.6,0.6l0,0H867C867,602.6,867.3,602.3,867.6,602.3z"/>
		<path id="Trazado_455" class="st8" d="M868.9,602.9l0.8,0l0,0.3h-0.8L868.9,602.9z"/>
		<rect id="Rectángulo_180" x="872.1" y="602.9" class="st8" width="1.5" height="0.2"/>
		<path id="Trazado_456" class="st8" d="M876.9,603.1h-0.8l0-0.3l0.8,0L876.9,603.1z"/>
		<path id="Trazado_457" class="st7" d="M867.6,602.4h10.7c0.3,0,0.6,0.3,0.6,0.6l0,0H867C867,602.7,867.3,602.4,867.6,602.4
			L867.6,602.4L867.6,602.4z"/>
		<path id="Trazado_458" class="st11" d="M882.3,585.1c0.1,0,0.1,0,0.2,0.1c0,0,0,0,0,0c-0.1,1.4-0.1,2.8,0.1,4.1
			c0,0.6,0.2,1.2,0.4,1.7c0,0.1,0,0.1,0,0.2c-0.1,0.1-0.2,0.1-0.3,0.1l-4.3,0c-0.1,0-0.1-0.1-0.1-0.1c0,0,0,0,0,0
			c0.3-1.5,0.3-3.1,0.1-4.7c-0.1-0.8-0.1-1.2,0.5-1.2c0.6-0.1,1.2-0.1,1.7-0.1C880.7,585.2,881.8,585.2,882.3,585.1z"/>
		<path id="Trazado_459" class="st11" d="M879,594.1c-0.1,0-0.1,0-0.2,0.1c0,0,0,0,0,0c0.1,1.4,0.1,2.8-0.1,4.1
			c0,0.6-0.2,1.2-0.4,1.7c0,0.1,0,0.1,0,0.2c0.1,0.1,0.2,0.1,0.3,0.1l4.3,0c0.1,0,0.1-0.1,0.1-0.1c0,0,0,0,0,0
			c-0.3-1.5-0.3-3.1-0.1-4.7c0.1-0.8,0.1-1.2-0.5-1.2c-0.6-0.1-1.2-0.1-1.7-0.1C880.6,594.2,879.4,594.2,879,594.1z"/>
		<path id="Trazado_460" class="st12" d="M880.3,596.6c0.5,0,1,0,1.5,0c0.1,0,0.1,0.1,0.1,0.1l0,0.4c0,0,0,0,0,0.1c0,0,0,0,0,0
			c-0.2,0-0.4,0-0.6,0c-0.1,0-0.3,0-0.4,0.1c-0.2,0-0.4,0-0.6,0c-0.3,0-0.6,0-0.9-0.1c0,0,0-0.3,0-0.4c0-0.2,0-0.2,0.2-0.2
			L880.3,596.6z"/>
		<path id="Trazado_461" class="st12" d="M880.3,598.4c0.5,0,1,0,1.5,0c0.1,0,0.1-0.1,0.1-0.1l0-0.4c0,0,0,0,0-0.1c0,0,0,0,0,0
			c-0.2,0-0.4,0-0.6,0c-0.1,0-0.3,0-0.4-0.1c-0.2,0-0.4,0-0.6,0c-0.3,0-0.6,0-0.9,0.1c0,0,0,0.3,0,0.4c0,0.2,0,0.2,0.2,0.2
			L880.3,598.4z"/>
		<path id="Trazado_462" class="st12" d="M880.3,599.1c0.5,0,1,0,1.5,0c0.1,0,0.1,0.1,0.1,0.1l0,0.4c0,0,0,0,0,0.1c0,0,0,0,0,0
			c-0.2,0-0.4,0-0.6,0c-0.1,0-0.3,0-0.4,0.1c-0.2,0-0.4,0-0.6,0c-0.3,0-0.6,0-0.9-0.1c0,0,0-0.3,0-0.4c0-0.2,0-0.2,0.2-0.2
			L880.3,599.1z"/>
		<path id="Trazado_463" class="st13" d="M880.9,590.7c0,0.1,0.1,0.2,0,0.3c0,0,0,0,0,0c0,0,0,0,0,0l-0.9,0c0,0,0-0.3,0.1-0.3
			c0-0.1,0.1-0.1,0.2-0.1L880.9,590.7z"/>
		<path id="Trazado_464" class="st13" d="M882.3,590.7c0,0.1,0.1,0.2,0,0.3c0,0,0,0,0,0c0,0,0,0,0,0l-0.9,0c0,0,0.1-0.3,0.1-0.3
			c0-0.1,0.1-0.1,0.2-0.1L882.3,590.7z"/>
		<path id="Trazado_465" class="st14" d="M881.7,586.1l0.1,1.1c0,0.2-0.1,0.3-0.3,0.3c0,0,0,0,0,0c-0.8,0.1-1.6,0.1-2.3,0
			c-0.1,0-0.3-0.1-0.3-0.3c0-0.2,0-0.4-0.1-0.6c0-0.2-0.1-0.4,0.2-0.4c0.3,0,0.5,0,0.8,0c0.3,0,0.6,0,0.9,0
			C880.8,586.1,881.7,586.1,881.7,586.1z"/>
		<path id="Trazado_466" class="st14" d="M881.7,590l0.1-1.1c0-0.2-0.1-0.3-0.3-0.3c0,0,0,0,0,0c-0.8-0.1-1.6-0.1-2.3,0
			c-0.1,0-0.3,0.1-0.3,0.3c0,0.2,0,0.4-0.1,0.6c0,0.2-0.1,0.4,0.2,0.4c0.3,0,0.5,0,0.8,0c0.3,0,0.6,0,0.9,0
			C880.8,589.9,881.7,590,881.7,590z"/>
		<path id="Trazado_467" class="st12" d="M880.5,594.8c0,0.4-0.1,0.7-0.1,1.1c-0.4,0-0.7,0-1-0.1c-0.1,0-0.2-0.1-0.2-0.2
			c0,0,0,0,0,0c0-0.2-0.1-0.7,0.2-0.8C879.5,594.8,880.5,594.8,880.5,594.8z"/>
		<path id="Trazado_468" class="st13" d="M863.5,589.9c0.2,0,0.3,0.1,0.3,0.3c0,0,0,0,0,0.1c-0.1,1.3,0,2.6,0.1,3.9
			c0,0.6,0.2,1.1,0.4,1.6c0.1,0.1,0,0.3-0.1,0.3c0,0-0.1,0-0.1,0l0,0l-4.2,0c-0.1,0-0.2-0.1-0.2-0.2c0,0,0,0,0,0
			c0.3-1.5,0.3-3.1,0.1-4.6c-0.1-0.8-0.1-1.2,0.5-1.2c0.6-0.1,1.2-0.1,1.7-0.1C862.2,590,863,590,863.5,589.9z"/>
		<path id="Trazado_469" class="st11" d="M869.5,589.9c-0.1,0-0.2,0-0.2,0.1c0,0,0,0,0,0c0.1,1.4,0.1,2.8-0.1,4.1
			c0,0.6-0.2,1.2-0.4,1.7c0,0.1,0,0.2,0,0.2c0.1,0,0.2,0.1,0.2,0.1l4.3,0c0.1,0,0.2-0.1,0.2-0.2c0,0,0,0,0,0
			c-0.3-1.5-0.3-3.1-0.1-4.7c0.1-0.8,0.1-1.2-0.5-1.2c-0.6-0.1-1.2-0.1-1.7-0.1C871,590,869.9,590,869.5,589.9z"/>
		<line id="Línea_18" class="st12" x1="861" y1="590.8" x2="863.2" y2="593.7"/>
		<line id="Línea_19" class="st12" x1="863.2" y1="590.6" x2="861.1" y2="593.9"/>
		<line id="Línea_20" class="st12" x1="870.7" y1="590.9" x2="871.9" y2="592.5"/>
		<line id="Línea_21" class="st12" x1="871.9" y1="590.8" x2="870.7" y2="592.6"/>
		<path id="Trazado_470" class="st12" d="M861.7,594.7c0.5,0,1,0,1.5,0c0.1,0,0.1,0.1,0.1,0.1l0,0.4c0,0,0,0,0,0.1c0,0,0,0,0,0
			c-0.2,0-0.4,0-0.6,0c-0.1,0-0.3,0-0.4,0.1c-0.2,0-0.4,0-0.6,0c-0.3,0-0.6,0-0.9-0.1c0,0,0-0.3,0-0.4c0-0.2,0-0.2,0.2-0.2
			L861.7,594.7z"/>
		<path id="Trazado_471" class="st12" d="M870.8,593.2c0.5,0,1,0,1.5,0c0.1,0,0.1,0.1,0.1,0.1l0,0.4c0,0,0,0,0,0.1c0,0,0,0,0,0
			c-0.2,0-0.4,0-0.6,0c-0.1,0-0.3,0-0.4,0.1c-0.2,0-0.4,0-0.6,0c-0.3,0-0.6,0-0.9-0.1c0,0,0-0.3,0-0.4c0-0.2,0-0.2,0.2-0.2
			L870.8,593.2z"/>
		<path id="Trazado_472" class="st12" d="M871.6,594.3c-0.5,0-1,0-1.5,0c-0.1,0-0.1,0.1-0.1,0.1l0,0.4c0,0,0,0,0,0.1c0,0,0,0,0,0
			c0.2,0,0.4,0,0.6,0c0.1,0,0.3,0,0.4,0.1c0.2,0,0.4,0,0.6,0c0.3,0,0.6,0,0.9-0.1c0,0,0-0.3,0-0.4c0-0.2,0-0.2-0.2-0.2L871.6,594.3z
			"/>
		<path id="Trazado_473" class="st14" d="M865.4,593.6c0.6,0,1.1,0,1.7,0"/>
		<path id="Trazado_474" class="st14" d="M867.1,592.8c0,0,0.6,0.6,0.6,0.8s-0.8,0.7-0.8,0.7"/>
		<path id="Trazado_475" class="st14" d="M874.6,592.3c0.5-0.2,1-0.5,1.5-0.6"/>
		<path id="Trazado_476" class="st14" d="M875.9,590.9c0,0,0.8,0.3,0.9,0.5c0.1,0.1-0.5,0.9-0.5,0.9"/>
		<path id="Trazado_477" class="st14" d="M874.6,593.8c0.5,0.2,1,0.5,1.5,0.7"/>
		<path id="Trazado_478" class="st14" d="M876.4,593.9c0,0,0.3,0.8,0.2,1s-1,0.2-1,0.2"/>
		<path id="Trazado_479" class="st13" d="M879.7,590.7c0,0.1,0.1,0.2,0,0.3c0,0,0,0,0,0c0,0,0,0,0,0l-0.9,0c0,0,0.1-0.3,0.1-0.3
			c0-0.1,0.1-0.1,0.2-0.1L879.7,590.7z"/>
	</g>
</g>
</svg>
