<?xml version="1.0" encoding="utf-8"?>
<!-- Generator: Adobe Illustrator 24.3.0, SVG Export Plug-In . SVG Version: 6.00 Build 0)  -->
<svg version="1.1" id="Capa_1" xmlns="http://www.w3.org/2000/svg" xmlns:xlink="http://www.w3.org/1999/xlink" x="0px" y="0px"
	 viewBox="0 0 369 306" style="enable-background:new 0 0 369 306;" xml:space="preserve">
<style type="text/css">
	.st0{opacity:0.1;fill:#1D79F2;enable-background:new    ;}
	.st1{fill:#FFFFFF;}
	.st2{fill:#3F3D56;}
	.st3{fill:#F2F2F2;}
	.st4{fill:#1D79F2;}
	.st5{fill:#2F2E41;}
	.st6{opacity:0.3;fill:#1D79F2;enable-background:new    ;}
	.st7{opacity:0.4;fill:#1D79F2;enable-background:new    ;}
</style>
<g id="Grupo_93" transform="translate(-459 -705.782)">
	<g id="Grupo_88" transform="translate(-7 67)">
		<path id="Trazado_364" class="st0" d="M818.45,740.79c-3.55-6.89-8.2-13.15-13.77-18.54l-190.96-1.59l157.22-18.67
			c-10.29-3.44-21.05-5.25-31.9-5.35c-15.14-10.33-34.59-16.55-55.81-16.55c-17.9-0.14-35.51,4.52-51,13.49
			c-12.91-5.55-26.82-8.39-40.88-8.33c-42.43,0-77.78,24.84-85.71,57.79L818.45,740.79z"/>
		<path id="Trazado_365" class="st0" d="M824.16,769.41c-0.01-9.03-2.05-17.94-5.95-26.08l-330.96,29.38
			c-3.36,5.12-5.97,10.7-7.75,16.55l102.49,12.92l-104.82,9.42c3.15,37.29,40.97,66.75,87.17,66.75c23.26,0,44.39-7.46,60.04-19.64
			c15.71,12.4,37.03,20.02,60.55,20.02c34.88,0,64.98-16.79,79-41.06c28.12-7.55,49.97-26.49,57.45-50.2l-129.61-16.98h132.4V769.41
			z"/>
	</g>
	<g id="Grupo_90" transform="translate(9.406 76.036)">
		<rect id="Rectángulo_152" x="555.75" y="688.27" class="st1" width="138" height="206"/>
		<g id="Grupo_89" transform="translate(545.163 646.889)">
			<rect id="Rectángulo_115" x="11.32" y="172" class="st2" width="137.77" height="37.34"/>
			<path id="Trazado_419" class="st3" d="M140.26,79.49l-5.5,2.6l4.87-3.64c-0.79-1.24-1.68-2.41-2.66-3.5l-23.86,5.93l21.55-8.22
				c-0.98-0.87-2.03-1.67-3.13-2.38l-36.35,5.86c-3.86,4.83-5.96,10.82-5.97,17h54.72C143.94,88.33,142.67,83.63,140.26,79.49
				L140.26,79.49z"/>
			<path id="Trazado_421" class="st2" d="M116.21,93.13L97.59,65.47c0,0,28.21,9.85,25.01,27.67H116.21z"/>
			<path id="Trazado_422" class="st4" d="M116.94,93.13l18.63-27.67c0,0-28.21,9.85-25.01,27.67H116.94z"/>
			<path id="Trazado_423" class="st5" d="M149.25,247.32H11.16V41.31h138.09V247.32z M11.81,246.68h136.8V41.95H11.81V246.68z"/>
			<rect id="Rectángulo_117" x="11.64" y="46.2" class="st5" width="137.45" height="0.64"/>
			<circle id="Elipse_98" class="st4" cx="15.18" cy="43.89" r="1.29"/>
			<circle id="Elipse_99" class="st4" cx="18.72" cy="43.89" r="1.29"/>
			<circle id="Elipse_100" class="st4" cx="22.26" cy="43.89" r="1.29"/>
			<rect id="Rectángulo_118" x="16.47" y="50.64" class="st4" width="5.79" height="3.22"/>
			<rect id="Rectángulo_119" x="16.47" y="76.07" class="st4" width="28.33" height="3.22"/>
			<rect id="Rectángulo_120" x="117.22" y="50.64" class="st3" width="28.33" height="3.22"/>
			<rect id="Rectángulo_121" x="16.47" y="81.55" class="st3" width="47.64" height="1.93"/>
			<rect id="Rectángulo_122" x="16.47" y="85.73" class="st3" width="45.06" height="1.93"/>
			<rect id="Rectángulo_123" x="16.47" y="89.92" class="st3" width="32.83" height="1.93"/>
			<rect id="Rectángulo_124" x="27.41" y="147.21" class="st3" width="18.67" height="1.93"/>
			<rect id="Rectángulo_125" x="27.41" y="151.4" class="st3" width="17.66" height="1.93"/>
			<rect id="Rectángulo_126" x="27.41" y="155.58" class="st3" width="12.87" height="1.93"/>
			<rect id="Rectángulo_127" x="70.87" y="147.21" class="st3" width="18.67" height="1.93"/>
			<rect id="Rectángulo_128" x="70.87" y="151.4" class="st3" width="17.66" height="1.93"/>
			<rect id="Rectángulo_129" x="70.87" y="155.58" class="st3" width="12.87" height="1.93"/>
			<rect id="Rectángulo_130" x="115.93" y="147.21" class="st3" width="18.67" height="1.93"/>
			<rect id="Rectángulo_131" x="115.93" y="151.4" class="st3" width="17.66" height="1.93"/>
			<rect id="Rectángulo_132" x="115.93" y="155.58" class="st3" width="12.87" height="1.93"/>
			<rect id="Rectángulo_133" x="56.38" y="220.28" class="st4" width="28.33" height="3.22"/>
			<rect id="Rectángulo_134" x="56.38" y="225.75" class="st3" width="47.64" height="1.93"/>
			<rect id="Rectángulo_135" x="56.38" y="229.94" class="st3" width="45.06" height="1.93"/>
			<rect id="Rectángulo_136" x="56.38" y="234.12" class="st3" width="32.83" height="1.93"/>
			<rect id="Rectángulo_137" x="25" y="110.84" class="st6" width="112.02" height="0.64"/>
			<rect id="Rectángulo_138" x="24.84" y="122.1" class="st6" width="23.82" height="21.25"/>
			<rect id="Rectángulo_139" x="68.29" y="122.1" class="st2" width="23.82" height="21.25"/>
			<rect id="Rectángulo_140" x="113.36" y="122.1" class="st2" width="23.82" height="21.25"/>
			<path id="Trazado_424" class="st4" d="M77.1,143.26l-0.31-0.01c0.01-0.35,0.2-8.55,3.43-10.82l0.18,0.26
				C77.3,134.86,77.1,143.18,77.1,143.26z"/>
			<circle id="Elipse_101" class="st4" cx="81.88" cy="130.76" r="1.57"/>
			<path id="Trazado_425" class="st4" d="M81.56,136.31c-0.82,0.26-1.69,0.29-2.52,0.11c1.08-1.38,2.88-2,4.58-1.57
				C83.08,135.51,82.37,136.01,81.56,136.31z"/>
			<path id="Trazado_426" class="st4" d="M122.17,143.26l-0.31-0.01c0.01-0.35,0.2-8.55,3.43-10.82l0.18,0.26
				C122.36,134.86,122.17,143.18,122.17,143.26z"/>
			<rect id="Rectángulo_141" x="16.47" y="183.91" class="st4" width="28.33" height="3.22"/>
			<rect id="Rectángulo_142" x="16.47" y="189.38" class="st3" width="47.64" height="1.93"/>
			<rect id="Rectángulo_143" x="16.47" y="193.56" class="st3" width="45.06" height="1.93"/>
			<rect id="Rectángulo_144" x="16.47" y="197.75" class="st3" width="32.83" height="1.93"/>
			<circle id="Elipse_103" class="st7" cx="121.33" cy="188.35" r="10.06"/>
			<circle id="Elipse_104" class="st7" cx="102.71" cy="193.15" r="7.06"/>
			
				<rect id="Rectángulo_151" x="20.49" y="109.71" transform="matrix(0.2872 -0.9579 0.9579 0.2872 -94.3176 116.5003)" class="st2" width="21.25" height="23.82"/>
			<path id="Trazado_433" class="st4" d="M25.12,130.82l-0.3-0.1c0.11-0.33,2.65-8.13,6.39-9.38l0.1,0.3
				C27.72,122.84,25.14,130.74,25.12,130.82z"/>
			<circle id="Elipse_127" class="st4" cx="33.28" cy="120.22" r="1.57"/>
			<path id="Trazado_434" class="st4" d="M31.39,125.44c-0.86,0.01-1.7-0.2-2.45-0.62c1.44-1.01,3.33-1.09,4.84-0.19
				C33.07,125.11,32.24,125.39,31.39,125.44z"/>
		</g>
	</g>
</g>
</svg>
