<?xml version="1.0" encoding="utf-8"?>
<!-- Generator: Adobe Illustrator 25.0.0, SVG Export Plug-In . SVG Version: 6.00 Build 0)  -->
<svg version="1.1" id="Capa_1" xmlns="http://www.w3.org/2000/svg" xmlns:xlink="http://www.w3.org/1999/xlink" x="0px" y="0px"
	 viewBox="0 0 162.1 109.4" style="enable-background:new 0 0 162.1 109.4;" xml:space="preserve">
<style type="text/css">
	.st0{opacity:0.1;fill:#1D79F2;enable-background:new    ;}
	.st1{fill:#1D79F2;}
	.st2{opacity:0.25;enable-background:new    ;}
	.st3{fill:#C8CAD7;}
	.st4{opacity:0.1;enable-background:new    ;}
	.st5{fill:#474157;}
	.st6{fill:#FFFFFF;}
	.st7{fill:#EDEDF4;}
	.st8{opacity:0.2;fill:#1D79F2;enable-background:new    ;}
</style>
<g id="Grupo_79" transform="translate(-325 -627.782)">
	<path id="Trazado_364" class="st0" d="M463.3,663.8c-1.3-2.5-2.9-4.7-4.9-6.7l-67.4-0.6l55.5-6.7c-3.6-1.2-7.4-1.9-11.3-1.9
		c-5.3-3.7-12.2-6-19.7-6c-6.3-0.1-12.5,1.6-18,4.9c-4.6-2-9.5-3-14.4-3c-15,0-27.5,8.9-30.3,20.8L463.3,663.8z"/>
	<path id="Trazado_365" class="st0" d="M465.7,673.8c0-3.3-0.7-6.5-2.1-9.4L346.8,675c-1.2,1.8-2.1,3.9-2.7,6l36.2,4.7l-37,3.4
		c1.1,13.4,14.5,24,30.8,24c8.2,0,15.7-2.7,21.2-7.1c5.5,4.5,13.1,7.2,21.4,7.2c12.3,0,22.9-6,27.9-14.8c9.9-2.7,17.6-9.5,20.3-18.1
		l-45.7-6.1h46.7L465.7,673.8L465.7,673.8z"/>
	<path id="Trazado_369" class="st1" d="M374,686.6c-0.7,0.7-4.2,1.6-4.2,1.6s0.8-3.5,1.5-4.3c0.7-0.7,1.9-0.7,2.6,0
		C374.7,684.7,374.7,685.9,374,686.6L374,686.6z"/>
	<path id="Trazado_370" class="st1" d="M374.6,694.3c-0.6,0.9-3.9,2.3-3.9,2.3s0.2-3.6,0.8-4.5c0.6-0.9,1.8-1.1,2.6-0.5
		C375,692.3,375.2,693.5,374.6,694.3L374.6,694.3L374.6,694.3z"/>
	<path id="Trazado_376" class="st2" d="M374,686.6c-0.7,0.7-4.2,1.6-4.2,1.6s0.8-3.5,1.5-4.3c0.7-0.7,1.9-0.7,2.6,0
		C374.7,684.7,374.7,685.9,374,686.6L374,686.6z"/>
	<path id="Trazado_377" class="st2" d="M374.6,694.3c-0.6,0.9-3.9,2.3-3.9,2.3s0.2-3.6,0.8-4.5c0.6-0.9,1.8-1.1,2.6-0.5
		C375,692.3,375.2,693.5,374.6,694.3L374.6,694.3L374.6,694.3z"/>
	<ellipse id="Elipse_69" class="st0" cx="404.5" cy="723.1" rx="19.4" ry="1.2"/>
	<path id="Trazado_389" class="st3" d="M413.4,721.1v0.7h-20.6v-0.6c3.5-1.3,5.3-5.3,4-8.9c-0.6-1.7-1.9-3.1-3.5-3.9h20
		c-3.4,1.6-4.9,5.7-3.3,9.1C410.7,719.2,411.9,720.4,413.4,721.1L413.4,721.1z"/>
	<path id="Trazado_390" class="st4" d="M413.3,708.5c-1.9,0.9-3.2,2.5-3.7,4.6h-12.5c-0.5-2-1.9-3.7-3.7-4.6H413.3z"/>
	<path id="Trazado_391" class="st3" d="M369.4,704.9v4c0,2.2,1.6,4,3.5,4h60.5c1.9,0,3.5-1.8,3.5-4v-4H369.4z"/>
	<path id="Trazado_392" class="st4" d="M413.4,721.1v0.7h-20.6v-0.6c0.6-0.2,1.1-0.5,1.6-0.9h17.7
		C412.6,720.6,413,720.9,413.4,721.1z"/>
	<path id="Rectángulo_86" class="st3" d="M387.1,720.6h32.1c0.6,0,1,0.5,1,1.1l0,0c0,0.6-0.5,1.1-1,1.1h-32.1c-0.6,0-1-0.5-1-1.1
		l0,0C386.1,721,386.6,720.6,387.1,720.6z"/>
	<path id="Trazado_393" class="st5" d="M436.9,661.3c0-2-1.6-3.6-3.5-3.6l0,0h-60.5c-1.9,0-3.5,1.6-3.5,3.6l0,0v44.4h67.5V661.3z"/>
	<path id="Trazado_415" class="st6" d="M376.8,661.1h52.5c3.1,0,5.6,2.6,5.6,5.8V697c0,3.2-2.5,5.8-5.6,5.8h-52.5
		c-3.1,0-5.6-2.6-5.6-5.8v-30.2C371.2,663.7,373.7,661.1,376.8,661.1z"/>
	<ellipse id="Elipse_71" class="st6" cx="403.1" cy="659.4" rx="0.8" ry="0.8"/>
	<ellipse id="Elipse_72" class="st6" cx="403.1" cy="709" rx="2" ry="2"/>
	<path id="Trazado_394" class="st3" d="M435,662.9h-63.8c0-1,0.8-1.8,1.7-1.8h60.4C434.3,661.1,435,661.9,435,662.9z"/>
	<ellipse id="Elipse_73" class="st7" cx="372.9" cy="662" rx="0.4" ry="0.4"/>
	<ellipse id="Elipse_74" class="st7" cx="374.2" cy="662" rx="0.4" ry="0.4"/>
	<ellipse id="Elipse_75" class="st7" cx="375.5" cy="662" rx="0.4" ry="0.4"/>
	<rect id="Rectángulo_88" x="373.6" y="664.4" class="st1" width="16.4" height="1"/>
	<rect id="Rectángulo_89" x="373.6" y="693.4" class="st1" width="16.4" height="1"/>
	<rect id="Rectángulo_90" x="373.6" y="695.6" class="st8" width="30.3" height="1"/>
	<rect id="Rectángulo_91" x="373.6" y="697.1" class="st8" width="30.3" height="1"/>
	<rect id="Rectángulo_92" x="373.6" y="698.5" class="st8" width="30.3" height="1"/>
	<rect id="Rectángulo_93" x="373.6" y="667" class="st8" width="30.1" height="16.7"/>
	<rect id="Rectángulo_94" x="373.9" y="685.2" class="st8" width="7" height="6.6"/>
	<rect id="Rectángulo_95" x="396.7" y="685.2" class="st8" width="7" height="6.6"/>
	<rect id="Rectángulo_96" x="385.1" y="685.2" class="st8" width="7" height="6.6"/>
	<rect id="Rectángulo_97" x="410.1" y="671.9" class="st8" width="20.7" height="15.6"/>
	<rect id="Rectángulo_98" x="412.3" y="675" class="st7" width="16.4" height="1"/>
	<rect id="Rectángulo_99" x="412.3" y="677.1" class="st7" width="16.4" height="1"/>
	<rect id="Rectángulo_100" x="412.3" y="679.1" class="st7" width="16.4" height="1"/>
	<rect id="Rectángulo_101" x="412.3" y="681.2" class="st7" width="16.4" height="1"/>
	<rect id="Rectángulo_102" x="412.3" y="683.3" class="st7" width="16.4" height="1"/>
	<rect id="Rectángulo_103" x="412.7" y="689.2" class="st1" width="15.7" height="2.8"/>
	<rect id="Rectángulo_104" x="411.8" y="698.5" class="st1" width="10.5" height="1.9"/>
</g>
</svg>
