<?xml version="1.0" encoding="utf-8"?>
<!-- Generator: Adobe Illustrator 25.0.0, SVG Export Plug-In . SVG Version: 6.00 Build 0)  -->
<svg version="1.1" id="Capa_1" xmlns="http://www.w3.org/2000/svg" xmlns:xlink="http://www.w3.org/1999/xlink" x="0px" y="0px"
	 viewBox="0 0 210.9 133.1" style="enable-background:new 0 0 210.9 133.1;" xml:space="preserve">
<style type="text/css">
	.st0{fill:#E6E6E6;}
	.st1{fill:#3F3D56;}
	.st2{opacity:0.2;enable-background:new    ;}
	.st3{fill:#04BFAE;}
	.st4{opacity:0.7;}
	.st5{fill:url(#Trazado_75_1_);}
	.st6{fill:#197BFF;}
	.st7{opacity:0.1;fill:#04BFAE;enable-background:new    ;}
	.st8{fill:#1D79F2;}
	.st9{opacity:0.1;enable-background:new    ;}
	.st10{fill:#FAFAFA;}
</style>
<g id="Grupo_63" transform="translate(-290.425 -1279.154)">
	<path id="Trazado_90" class="st0" d="M380.4,1374.9l-11.1,18.3v1.8c-0.8,0-1.6,0-2.4,0l0.5-23.9v-0.2v0l0-2.3l-12.1-17.6l12.1,15.9
		l0,0.5l0.4-18l-10.5-18.3l10.6,15.1l0-24.4v-8h0.1l0.2,8l0.4,16.5l9.6-12l-9.5,14.5l0.2,16.1l8.8-15.8l-8.8,18.1l0.1,9l12.8-21.9
		l-12.8,25.1l0.2,19.9L380.4,1374.9z"/>
	<path id="Trazado_91" class="st0" d="M431,1369.5l-3.5,6.9l-8.8,17.3h-2l0-1.9l-10.6-15.4l-1.5-2.3l1.7,2.3l10.4,13.7l0,0.5
		l0.3-14.2l0.1-3.9l-10.5-18.3l10.6,15.1l-0.1-37.3v-0.1v0.1l0.7,29.4l9.6-12l-9.5,14.5l0.1,12.4l0,3.7l2.1-3.7l6.7-12l-5.8,12
		l-2.9,6.1l0.1,9l8.8-15L431,1369.5z"/>
	<path id="Trazado_92" class="st1" d="M425.6,1393.4c0,1.6-14.7,6.4-33,6.4c-18.2,0-33-4.8-33-6.4c0-1.6,14.7,0.6,33,0.6
		C410.8,1394,425.6,1391.8,425.6,1393.4z"/>
	<path id="Trazado_93" class="st2" d="M425.6,1393.4c0,1.6-14.7,6.4-33,6.4c-18.2,0-33-4.8-33-6.4c0-1.6,14.7,0.6,33,0.6
		C410.8,1394,425.6,1391.8,425.6,1393.4z"/>
	<ellipse id="Elipse_17" class="st1" cx="392.6" cy="1393.4" rx="33" ry="2.9"/>
	<ellipse id="Elipse_18" class="st2" cx="392.4" cy="1393.6" rx="13.5" ry="1.3"/>
	<ellipse id="Elipse_19" class="st0" cx="380.3" cy="1371.2" rx="1.4" ry="1.4"/>
	<ellipse id="Elipse_20" class="st0" cx="405.9" cy="1376.4" rx="1.4" ry="1.4"/>
	<ellipse id="Elipse_21" class="st0" cx="399" cy="1383.8" rx="1" ry="1"/>
	<path id="Trazado_98" class="st0" d="M362.8,1392.9c4.1,0.9,8.7,0.2,8.7,0.2s-2.2-2.2-6.3-3.1c-4.1-0.9-8.7-0.2-8.7-0.2
		S358.7,1392,362.8,1392.9z"/>
	<path id="Trazado_99" class="st3" d="M363.2,1394.5c2.8,0,5.6-0.4,8.3-1.3c-2.5-1.1-5.3-1.7-8-1.8c-2.8,0-5.6,0.4-8.3,1.3
		C357.8,1393.7,360.5,1394.4,363.2,1394.5z"/>
	<path id="Trazado_100" class="st3" d="M363.6,1391.3c3.2,1.6,8,1.8,8,1.8s-0.5-2.4-3.7-4c-3.2-1.6-8-1.8-8-1.8
		S360.3,1389.7,363.6,1391.3z"/>
	<path id="Trazado_101" class="st0" d="M440.8,1321.8v-8h-96.3v79.1h8v-33.1h88.3v-8h-88.3v-30H440.8L440.8,1321.8z"/>
	<rect id="Rectángulo_26" x="433" y="1314.8" class="st0" width="8.2" height="78.1"/>
	<path id="Trazado_103" class="st0" d="M359.7,1372.3c-0.7,1.2-1.5,1.2-2.3,0.7l0,0c0,0,0,0-0.1,0c-0.6-0.4-0.8-1.2-0.1-2.3
		c0.7-1.1,2.7-1.7,2.9-1.8l0,0l0,0C360.1,1368.9,360.4,1371.1,359.7,1372.3z"/>
	<path id="Trazado_104" class="st0" d="M410.8,1343c-0.7,1.2-1.5,1.2-2.3,0.7l0,0c0,0,0,0-0.1,0c-0.6-0.4-0.8-1.2-0.1-2.3
		c0.7-1.1,2.7-1.7,2.9-1.8l0,0l0,0C411.2,1339.6,411.5,1341.8,410.8,1343z"/>
	<path id="Trazado_105" class="st0" d="M381.6,1334.5c0.9,1,0.8,1.8,0.1,2.4l0,0c0,0,0,0-0.1,0.1c-0.6,0.4-1.3,0.5-2.2-0.4
		c-0.9-1-1-3.1-1-3.3l0,0l0,0C378.5,1333.3,380.7,1333.5,381.6,1334.5z"/>
	<g id="Grupo_55" transform="translate(361.203 1330.504)">
		<g id="Grupo_52" transform="translate(0 42.038)" class="st4">
			
				<linearGradient id="Trazado_75_1_" gradientUnits="userSpaceOnUse" x1="-523.7235" y1="982.7476" x2="-523.7235" y2="983.2292" gradientTransform="matrix(80.8255 0 0 -71.84 42367.0781 70621.5156)">
				<stop  offset="0" style="stop-color:#808080;stop-opacity:0.251"/>
				<stop  offset="0.535" style="stop-color:#808080;stop-opacity:0.122"/>
				<stop  offset="1" style="stop-color:#808080;stop-opacity:0.102"/>
			</linearGradient>
			<path id="Trazado_75" class="st5" d="M48.3-7.5v-6.2H17.4v28.6c0,3.3,2.7,6,6,6h18.8c3.3,0,6-2.7,6-6V8.6c4.4,0,8-3.6,8-8
				S52.7-7.5,48.3-7.5L48.3-7.5L48.3-7.5z M48.3,5.5v-9.9c2.7,0,5,2.2,5,5S51,5.5,48.3,5.5z"/>
		</g>
		<path id="Trazado_76" class="st6" d="M47.3,35.5c-4,0-7.3,3.3-7.3,7.3s3.3,7.3,7.3,7.3s7.3-3.3,7.3-7.3l0,0
			C54.6,38.8,51.4,35.5,47.3,35.5z M47.3,47.4c-2.5,0-4.5-2-4.5-4.5s2-4.5,4.5-4.5c2.5,0,4.5,2,4.5,4.5l0,0
			C51.8,45.4,49.8,47.4,47.3,47.4L47.3,47.4z"/>
		<path id="Trazado_77" class="st7" d="M47.3,35.5c-4,0-7.3,3.3-7.3,7.3s3.3,7.3,7.3,7.3s7.3-3.3,7.3-7.3l0,0
			C54.6,38.8,51.4,35.5,47.3,35.5z M47.3,47.4c-2.5,0-4.5-2-4.5-4.5s2-4.5,4.5-4.5c2.5,0,4.5,2,4.5,4.5l0,0
			C51.8,45.4,49.8,47.4,47.3,47.4L47.3,47.4z"/>
		<path id="Trazado_78" class="st8" d="M19.1,29.9h28.2v27.9c0,2-1.6,3.7-3.7,3.7l0,0H22.7c-2,0-3.7-1.6-3.7-3.7l0,0V29.9z"/>
		<path id="Trazado_88" class="st9" d="M42.2,29.9V56c0,3-2.5,5.5-5.5,5.5h2.8c3,0,5.5-2.5,5.5-5.5V29.9H42.2z"/>
		<path id="Trazado_89" class="st10" d="M24.7,8.8c-0.5,0-1,0.2-1.3,0.6c-0.4,0.7,0.3,1.4,0.9,1.9c1.1,0.9,2.3,1.7,3.1,2.9
			c0.8,1.2,1,2.8,0.1,4c-1.1,1.5-3.7,1.8-4,3.7c-0.1,1.2,0.9,2.2,1.9,2.8c2.6,1.4,5.8,1.8,7.7,4.1c0.8-1.5,2.5-2.5,4.1-2.8
			c1.7-0.4,3.5-0.3,5.2-0.6c0.6-0.1,1.2-0.2,1.4-0.8c0.5-1-0.9-2.2-0.4-3.1c0.4-0.8,1.4-0.7,2.2-1c1.3-0.5,1.8-2.1,1.4-3.4
			c-0.4-1.3-1.3-2.3-2.4-3.1c-2.8-2.3-6.3-3.6-9.8-4.5c-1.6-0.4-3.5-1.2-5.2-1.2C28.1,8.1,26.3,8.5,24.7,8.8z"/>
	</g>
</g>
</svg>
