<?xml version="1.0" encoding="utf-8"?>
<!-- Generator: Adobe Illustrator 24.3.0, SVG Export Plug-In . SVG Version: 6.00 Build 0)  -->
<svg version="1.1" id="Capa_1" xmlns="http://www.w3.org/2000/svg" xmlns:xlink="http://www.w3.org/1999/xlink" x="0px" y="0px"
	 viewBox="0 0 369 306" style="enable-background:new 0 0 369 306;" xml:space="preserve">
<style type="text/css">
	.st0{opacity:0.1;fill:#1D79F2;enable-background:new    ;}
	.st1{fill:#464353;}
	.st2{fill:#FFFFFF;}
	.st3{fill:#FFFFFF;stroke:#FFFFFF;stroke-miterlimit:10;}
	.st4{opacity:0.5;fill:#1D79F2;enable-background:new    ;}
	.st5{fill:#1D79F2;}
	.st6{fill:#504F60;}
	.st7{opacity:0.1;enable-background:new    ;}
	.st8{fill:#FFFFFF;stroke:#707070;}
	.st9{fill:#3F3D56;}
	.st10{fill:#FFFFFF;stroke:#33313F;stroke-miterlimit:10;}
	.st11{fill:none;stroke:#33313F;stroke-linecap:round;stroke-miterlimit:10;}
	.st12{fill:#FFFFFF;stroke:#33313F;stroke-width:0.5;stroke-linecap:round;stroke-miterlimit:10;}
	.st13{fill:none;stroke:#33313F;stroke-miterlimit:10;}
	.st14{fill:#FFFFFF;stroke:#33313F;stroke-linecap:round;stroke-miterlimit:10;}
</style>
<g id="Grupo_94" transform="translate(-1218 -700)">
	<g id="Grupo_91" transform="translate(174 76.218)">
		<path id="Trazado_413" class="st0" d="M1395.45,728.89c-3.55-6.89-8.2-13.15-13.77-18.54l-190.96-1.59l157.22-18.67
			c-10.29-3.44-21.05-5.25-31.9-5.35c-15.14-10.33-34.59-16.55-55.81-16.55c-17.9-0.14-35.51,4.52-51,13.49
			c-12.91-5.55-26.82-8.39-40.88-8.33c-42.43,0-77.78,24.84-85.71,57.79L1395.45,728.89z"/>
		<path id="Trazado_414" class="st0" d="M1402.16,756.52c-0.01-9.03-2.05-17.94-5.95-26.08l-330.96,29.38
			c-3.36,5.12-5.97,10.7-7.75,16.55l102.49,12.92l-104.82,9.42c3.15,37.29,40.97,66.75,87.17,66.75c23.26,0,44.39-7.46,60.04-19.64
			c15.71,12.4,37.03,20.02,60.55,20.02c34.88,0,64.98-16.79,79-41.06c28.12-7.55,49.97-26.49,57.45-50.2l-129.61-16.98h132.4V756.52
			z"/>
	</g>
	<g id="Grupo_92" transform="translate(398 172.582)">
		<path id="Rectángulo_153" class="st1" d="M969.54,603.44h100.05c10.94,0,19.8,8.86,19.8,19.8v128.57c0,10.94-8.86,19.8-19.8,19.8
			H969.54c-10.94,0-19.8-8.86-19.8-19.8V623.24C949.74,612.3,958.6,603.44,969.54,603.44z"/>
		<rect id="Rectángulo_154" x="961.78" y="620.4" class="st0" width="115.56" height="134.24"/>
		<ellipse id="Elipse_129" class="st2" cx="1019.56" cy="763.49" rx="4.92" ry="4.92"/>
		<path id="Trazado_439" class="st2" d="M1019.56,615.59c-1.28,0-2.32-1.04-2.32-2.32s1.04-2.32,2.32-2.32s2.32,1.04,2.32,2.32l0,0
			C1021.88,614.55,1020.84,615.59,1019.56,615.59z"/>
		<path id="Trazado_440" class="st2" d="M1019.56,611.08c1.21,0,2.19,0.98,2.19,2.19s-0.98,2.19-2.19,2.19
			c-1.21,0-2.19-0.98-2.19-2.19S1018.35,611.08,1019.56,611.08L1019.56,611.08 M1019.56,610.81c-1.35,0-2.44,1.09-2.44,2.45
			c0,1.35,1.09,2.44,2.45,2.44c1.35,0,2.44-1.09,2.44-2.45c0-0.65-0.26-1.27-0.71-1.72
			C1020.83,611.07,1020.21,610.81,1019.56,610.81L1019.56,610.81z"/>
		<path id="Rectángulo_155" class="st3" d="M971.45,661.99h15.37c2.37,0,4.3,1.93,4.3,4.3v23.98c0,2.37-1.93,4.3-4.3,4.3h-15.37
			c-2.37,0-4.3-1.93-4.3-4.3v-23.98C967.15,663.91,969.08,661.99,971.45,661.99z"/>
		<path id="Rectángulo_156" class="st4" d="M974.57,670.2h9.13c2.85,0,5.17,2.31,5.17,5.17l0,0c0,2.85-2.31,5.17-5.17,5.17h-9.13
			c-2.85,0-5.17-2.31-5.17-5.17l0,0C969.4,672.51,971.71,670.2,974.57,670.2z"/>
		<path id="Rectángulo_157" class="st5" d="M974.27,684.75H984c0.44,0,0.8,0.36,0.8,0.8l0,0c0,0.44-0.36,0.8-0.8,0.8h-9.74
			c-0.44,0-0.8-0.36-0.8-0.8l0,0C973.46,685.11,973.82,684.75,974.27,684.75z"/>
		<path id="Rectángulo_158" class="st3" d="M1011.97,661.99h15.37c2.37,0,4.3,1.93,4.3,4.3v23.98c0,2.37-1.93,4.3-4.3,4.3h-15.37
			c-2.37,0-4.3-1.93-4.3-4.3v-23.98C1007.67,663.91,1009.59,661.99,1011.97,661.99z"/>
		<path id="Rectángulo_159" class="st4" d="M1015.43,667.08h8.57c0.81,0,1.46,0.65,1.46,1.46v3.18c0,0.81-0.65,1.46-1.46,1.46
			h-8.57c-0.81,0-1.46-0.65-1.46-1.46v-3.18C1013.97,667.73,1014.63,667.08,1015.43,667.08z"/>
		<path id="Rectángulo_160" class="st5" d="M1013.1,678.89h13.05c0.44,0,0.8,0.36,0.8,0.8l0,0c0,0.44-0.36,0.8-0.8,0.8h-13.05
			c-0.44,0-0.8-0.36-0.8-0.8l0,0C1012.29,679.25,1012.65,678.89,1013.1,678.89z"/>
		<path id="Rectángulo_161" class="st5" d="M1013.1,681.88h13.05c0.44,0,0.8,0.36,0.8,0.8l0,0c0,0.44-0.36,0.8-0.8,0.8h-13.05
			c-0.44,0-0.8-0.36-0.8-0.8l0,0C1012.29,682.24,1012.65,681.88,1013.1,681.88z"/>
		<path id="Rectángulo_162" class="st3" d="M1052.31,638.84h15.37c2.37,0,4.3,1.93,4.3,4.3v23.98c0,2.37-1.93,4.3-4.3,4.3h-15.37
			c-2.37,0-4.3-1.93-4.3-4.3v-23.98C1048.01,640.77,1049.93,638.84,1052.31,638.84z"/>
		<path id="Rectángulo_163" class="st4" d="M1053.65,643.9h12.68c0.81,0,1.46,0.65,1.46,1.46v4.36c0,0.81-0.65,1.46-1.46,1.46
			h-12.68c-0.81,0-1.46-0.65-1.46-1.46v-4.36C1052.19,644.55,1052.84,643.9,1053.65,643.9z"/>
		<path id="Rectángulo_164" class="st4" d="M1053.65,654.48h12.68c0.81,0,1.46,0.65,1.46,1.46v4.36c0,0.81-0.65,1.46-1.46,1.46
			h-12.68c-0.81,0-1.46-0.65-1.46-1.46v-4.36C1052.19,655.13,1052.84,654.48,1053.65,654.48z"/>
		<path id="Rectángulo_165" class="st5" d="M1052.06,667.63h2.87c0.62,0,1.12,0.5,1.12,1.12v0c0,0.62-0.5,1.12-1.12,1.12h-2.87
			c-0.62,0-1.12-0.5-1.12-1.12v0C1050.94,668.13,1051.44,667.63,1052.06,667.63z"/>
		<path id="Rectángulo_166" class="st5" d="M1058.55,667.63h2.87c0.62,0,1.12,0.5,1.12,1.12v0c0,0.62-0.5,1.12-1.12,1.12h-2.87
			c-0.62,0-1.12-0.5-1.12-1.12v0C1057.43,668.13,1057.93,667.63,1058.55,667.63z"/>
		<path id="Rectángulo_167" class="st5" d="M1065.04,667.63h2.87c0.62,0,1.12,0.5,1.12,1.12v0c0,0.62-0.5,1.12-1.12,1.12h-2.87
			c-0.62,0-1.12-0.5-1.12-1.12v0C1063.92,668.13,1064.42,667.63,1065.04,667.63z"/>
		<path id="Rectángulo_168" class="st3" d="M1052.25,685.13h15.37c2.37,0,4.3,1.93,4.3,4.3v23.98c0,2.37-1.93,4.3-4.3,4.3h-15.37
			c-2.37,0-4.3-1.93-4.3-4.3v-23.98C1047.95,687.06,1049.87,685.13,1052.25,685.13z"/>
		<path id="Rectángulo_169" class="st4" d="M1051.26,688.94h4.24c0.81,0,1.46,0.65,1.46,1.46v4.36c0,0.81-0.65,1.46-1.46,1.46
			h-4.24c-0.81,0-1.46-0.65-1.46-1.46v-4.36C1049.8,689.6,1050.45,688.94,1051.26,688.94z"/>
		<path id="Rectángulo_170" class="st5" d="M1053.41,700.66h13.05c0.44,0,0.8,0.36,0.8,0.8l0,0c0,0.44-0.36,0.8-0.8,0.8h-13.05
			c-0.44,0-0.8-0.36-0.8-0.8l0,0C1052.6,701.02,1052.96,700.66,1053.41,700.66z"/>
		<path id="Rectángulo_171" class="st5" d="M1053.41,703.9h13.05c0.44,0,0.8,0.36,0.8,0.8l0,0c0,0.44-0.36,0.8-0.8,0.8h-13.05
			c-0.44,0-0.8-0.36-0.8-0.8l0,0C1052.6,704.26,1052.96,703.9,1053.41,703.9z"/>
		<path id="Rectángulo_172" class="st5" d="M1053.41,707.15h13.05c0.44,0,0.8,0.36,0.8,0.8l0,0c0,0.44-0.36,0.8-0.8,0.8h-13.05
			c-0.44,0-0.8-0.36-0.8-0.8l0,0C1052.6,707.51,1052.96,707.15,1053.41,707.15z"/>
		<path id="Trazado_441" class="st3" d="M1004.91,677.5l-0.37,0.18l-2.97,1.43l-0.27,0.13c-0.07,0.03-0.16,0-0.2-0.07
			c0,0,0-0.01,0-0.01c0-0.02,0-0.04,0-0.05v-0.84c0-0.08-0.06-0.14-0.14-0.14h-7.22c-0.08,0-0.15-0.06-0.15-0.14v-1.19
			c0-0.08,0.07-0.14,0.15-0.14h7.23c0.08,0,0.14-0.07,0.14-0.15v-0.86c0-0.02,0-0.04,0-0.05c0.03-0.08,0.12-0.11,0.19-0.08
			c0,0,0.01,0,0.01,0l0.27,0.13l2.96,1.44l0.37,0.18c0.07,0.03,0.1,0.12,0.07,0.19C1004.96,677.46,1004.94,677.49,1004.91,677.5
			L1004.91,677.5z"/>
		<path id="Trazado_442" class="st3" d="M1045.13,670.17l-0.24,0.33l-1.94,2.65l-0.17,0.24c-0.05,0.07-0.15,0.08-0.21,0.03
			c0,0,0,0,0,0c-0.01-0.01-0.03-0.03-0.03-0.04l-0.4-0.74c-0.04-0.07-0.13-0.1-0.2-0.06l-6.39,3.4c-0.07,0.04-0.16,0.02-0.2-0.05
			c0,0,0,0,0-0.01l-0.56-1.06c-0.04-0.07-0.02-0.16,0.05-0.2c0,0,0,0,0.01,0l6.39-3.39c0.07-0.04,0.1-0.12,0.06-0.19c0,0,0,0,0-0.01
			l-0.4-0.76c-0.01-0.02-0.02-0.03-0.02-0.05c-0.01-0.08,0.04-0.15,0.12-0.16c0.01,0,0.01,0,0.02,0h0.29l3.29-0.12l0.41-0.01
			c0.08,0,0.14,0.06,0.14,0.14C1045.14,670.12,1045.14,670.14,1045.13,670.17L1045.13,670.17z"/>
		<path id="Trazado_443" class="st3" d="M1045.1,684.1h-3.99c-0.08,0-0.14-0.06-0.14-0.14c0,0,0-0.01,0-0.01
			c0-0.02,0.01-0.04,0.01-0.05l0.36-0.76c0.03-0.07,0-0.16-0.07-0.19c0,0,0,0,0,0l-6.52-3.13c-0.07-0.03-0.1-0.12-0.07-0.2
			c0,0,0,0,0,0l0.52-1.07c0.03-0.07,0.12-0.1,0.19-0.07c0,0,0,0,0.01,0l6.52,3.13c0.07,0.04,0.16,0.01,0.2-0.07c0,0,0,0,0,0
			l0.38-0.78c0.03-0.07,0.11-0.1,0.19-0.07c0.02,0.01,0.04,0.03,0.06,0.04l0.18,0.23l2.05,2.59l0.25,0.32
			c0.05,0.06,0.05,0.15-0.01,0.2C1045.18,684.08,1045.15,684.1,1045.1,684.1L1045.1,684.1z"/>
		<path id="Trazado_444" class="st6" d="M926.02,744.62l-0.02,0.8l-1.39,48.92h-2.33l1.14-48.92l0.02-0.92L926.02,744.62z"/>
		<path id="Trazado_445" class="st7" d="M926.02,744.62l-0.02,0.8l-1.39,48.92h-2.33l1.14-48.92l0.02-0.92L926.02,744.62z"/>
		<path id="Trazado_446" class="st6" d="M939.52,786.06l-1.74-0.01l-25.93-0.05h-1.38l0.73-2.27h28.14L939.52,786.06z"/>
		<path id="Trazado_447" class="st7" d="M926.03,744.62l-0.02,0.8h-2.57l0.02-0.92L926.03,744.62z"/>
		<rect id="Rectángulo_173" x="922.69" y="743.42" class="st6" width="4.32" height="1.62"/>
		<path id="Trazado_448" class="st7" d="M912.07,783.73l-0.23,2.27h-1.38l0.73-2.27L912.07,783.73z"/>
		<path id="Trazado_449" class="st6" d="M915.79,743.39l-0.07,0.7l-5.75,56.74l-2.64-0.12l6.06-56.62l0.07-0.64L915.79,743.39z"/>
		<path id="Trazado_450" class="st7" d="M939.52,786.06l-1.74-0.01l-0.24-2.33h1.8L939.52,786.06z"/>
		<path id="Trazado_451" class="st6" d="M942.28,800.71l-2.64,0.12l-5.75-56.74l-0.07-0.7l2.33,0.06l0.07,0.64L942.28,800.71z"/>
		<rect id="Rectángulo_174" x="895.38" y="687.45" class="st8" width="58.12" height="55.73"/>
		<path id="Rectángulo_175" class="st8" d="M886.76,687.45h75.42c2.28,0,4.13,1.85,4.13,4.13v47.47c0,2.28-1.85,4.13-4.13,4.13
			h-75.42c-2.28,0-4.13-1.85-4.13-4.13v-47.47C882.63,689.3,884.48,687.45,886.76,687.45z"/>
		<path id="Trazado_452" class="st6" d="M925.57,668.81v13.46h-2.27v-13.46c0-0.63,0.5-1.13,1.13-1.14
			C925.06,667.68,925.57,668.18,925.57,668.81C925.57,668.81,925.57,668.81,925.57,668.81L925.57,668.81z"/>
		<rect id="Rectángulo_176" x="923.3" y="681.05" class="st7" width="2.27" height="1.23"/>
		<path id="Trazado_453" class="st6" d="M926.46,681.96v4.45h-4.05v-4.45c0-0.3,0.24-0.54,0.54-0.54h2.94
			c0.3-0.01,0.55,0.23,0.56,0.53C926.46,681.95,926.46,681.96,926.46,681.96L926.46,681.96z"/>
		<circle id="Elipse_130" class="st7" cx="924.43" cy="684.23" r="0.86"/>
		<circle id="Elipse_131" class="st9" cx="924.43" cy="684.05" r="0.86"/>
		<rect id="Rectángulo_177" x="922.41" y="685.86" class="st7" width="4.05" height="0.55"/>
		<rect id="Rectángulo_178" x="920.75" y="686.59" class="st7" width="7.36" height="1.23"/>
		<rect id="Rectángulo_179" x="920.75" y="686.22" class="st6" width="7.36" height="1.23"/>
		<path id="Trazado_454" class="st7" d="M909.84,741.73h30.32c0.9,0,1.63,0.73,1.63,1.63l0,0h-33.57
			C908.22,742.46,908.95,741.73,909.84,741.73z"/>
		<path id="Trazado_455" class="st7" d="M913.46,743.45l2.33-0.06l-0.07,0.7h-2.33L913.46,743.45z"/>
		<rect id="Rectángulo_180" x="922.69" y="743.42" class="st7" width="4.32" height="0.67"/>
		<path id="Trazado_456" class="st7" d="M936.21,744.1h-2.33l-0.07-0.7l2.33,0.06L936.21,744.1z"/>
		<path id="Trazado_457" class="st6" d="M909.84,742.11h30.32c0.9,0,1.63,0.73,1.63,1.63l0,0h-33.57
			C908.22,742.84,908.95,742.11,909.84,742.11L909.84,742.11L909.84,742.11z"/>
		<path id="Trazado_458" class="st10" d="M951.46,693.99c0.22-0.04,0.42,0.11,0.46,0.33c0.01,0.04,0.01,0.08,0,0.12
			c-0.32,3.83-0.22,7.69,0.28,11.5c0.09,1.69,0.51,3.34,1.24,4.86c0.1,0.16,0.08,0.37-0.05,0.51c-0.21,0.17-0.48,0.25-0.76,0.23
			l-12.13,0.07c-0.22,0.01-0.41-0.17-0.41-0.39c0-0.04,0-0.08,0.01-0.11c0.97-4.16,0.77-8.69,0.38-13.01
			c-0.19-2.12-0.3-3.26,1.28-3.41c1.63-0.15,3.26-0.22,4.89-0.35C947.05,694.3,950.19,694.2,951.46,693.99z"/>
		<path id="Trazado_459" class="st10" d="M942.19,718.91c-0.22-0.04-0.42,0.11-0.46,0.33c-0.01,0.04-0.01,0.08,0,0.12
			c0.32,3.83,0.22,7.69-0.29,11.5c-0.08,1.69-0.5,3.34-1.23,4.86c-0.1,0.16-0.08,0.37,0.05,0.5c0.21,0.17,0.48,0.25,0.76,0.23
			l12.13,0.07c0.23,0,0.41-0.18,0.41-0.41c0-0.03,0-0.06-0.01-0.09c-0.97-4.16-0.77-8.69-0.38-13.01c0.19-2.12,0.3-3.26-1.28-3.41
			s-3.26-0.22-4.89-0.35C946.6,719.21,943.46,719.12,942.19,718.91z"/>
		<path id="Trazado_460" class="st11" d="M945.75,725.91c1.41-0.07,2.82-0.05,4.23,0.05c0.19,0.02,0.34,0.17,0.36,0.35l0.13,1.11
			c0.01,0.05,0,0.1-0.03,0.14c-0.03,0.02-0.06,0.03-0.1,0.03c-0.59,0.02-1.18-0.05-1.77,0c-0.37,0.03-0.73,0.1-1.09,0.14
			c-0.6,0.05-1.21,0.06-1.81,0.03c-0.85,0.01-1.7-0.09-2.52-0.31c0,0,0.05-0.92,0.05-1.01c0-0.43-0.01-0.47,0.43-0.48L945.75,725.91
			z"/>
		<path id="Trazado_461" class="st11" d="M945.75,730.92c1.41,0.07,2.82,0.05,4.23-0.05c0.19-0.02,0.34-0.17,0.36-0.35l0.13-1.11
			c0.01-0.05,0-0.11-0.03-0.15c-0.03-0.02-0.06-0.03-0.1-0.03c-0.59-0.02-1.18,0.05-1.77,0c-0.37-0.03-0.73-0.1-1.09-0.14
			c-0.6-0.05-1.21-0.07-1.81-0.03c-0.85-0.01-1.7,0.09-2.52,0.31c0,0,0.05,0.92,0.05,1.01c0,0.43-0.01,0.47,0.43,0.48L945.75,730.92
			z"/>
		<path id="Trazado_462" class="st11" d="M945.75,732.88c1.41-0.07,2.82-0.05,4.23,0.05c0.19,0.02,0.34,0.17,0.36,0.35l0.13,1.11
			c0.01,0.05,0,0.11-0.03,0.15c-0.03,0.02-0.06,0.03-0.1,0.03c-0.59,0.02-1.18-0.05-1.77,0c-0.37,0.03-0.73,0.1-1.09,0.14
			c-0.6,0.05-1.21,0.06-1.81,0.03c-0.85,0.02-1.7-0.09-2.52-0.31c0,0,0.05-0.92,0.05-1.01c0-0.43-0.01-0.47,0.43-0.48L945.75,732.88
			z"/>
		<path id="Trazado_463" class="st12" d="M947.53,709.62c0.12,0.3,0.17,0.62,0.12,0.95c0,0.03-0.01,0.05-0.02,0.07
			c-0.03,0.03-0.07,0.04-0.11,0.04l-2.58,0.1c0,0,0.14-0.76,0.16-0.82c0.09-0.31,0.32-0.23,0.61-0.24L947.53,709.62z"/>
		<path id="Trazado_464" class="st12" d="M951.43,709.62c0.12,0.3,0.16,0.63,0.12,0.95c0,0.03,0,0.05-0.02,0.07
			c-0.03,0.03-0.07,0.04-0.11,0.04l-2.58,0.1c0,0,0.15-0.76,0.17-0.82c0.09-0.31,0.31-0.23,0.61-0.24L951.43,709.62z"/>
		<path id="Trazado_465" class="st13" d="M949.87,696.65l0.35,2.99c0.05,0.45-0.27,0.85-0.72,0.9c-0.01,0-0.01,0-0.02,0
			c-2.21,0.17-4.42,0.16-6.62-0.04c-0.4-0.04-0.72-0.37-0.74-0.78c-0.04-0.53-0.12-1.06-0.23-1.58c-0.09-0.54-0.19-1.07,0.45-1.23
			c0.74-0.09,1.48-0.11,2.22-0.06c0.84-0.02,1.68-0.04,2.51-0.07C947.31,696.78,949.87,696.64,949.87,696.65z"/>
		<path id="Trazado_466" class="st13" d="M949.87,707.45l0.34-2.99c0.05-0.45-0.27-0.85-0.72-0.9c-0.01,0-0.01,0-0.02,0
			c-2.21-0.17-4.42-0.16-6.62,0.04c-0.41,0.04-0.72,0.37-0.74,0.78c-0.04,0.53-0.12,1.06-0.23,1.58c-0.09,0.54-0.19,1.07,0.45,1.23
			c0.74,0.09,1.48,0.11,2.22,0.06c0.84,0.02,1.68,0.04,2.51,0.07C947.31,707.33,949.87,707.47,949.87,707.45z"/>
		<path id="Trazado_467" class="st11" d="M946.38,720.92c-0.09,0.99-0.15,1.99-0.17,2.99c-1-0.01-1.99-0.12-2.96-0.34
			c-0.29-0.01-0.51-0.26-0.5-0.55c0-0.03,0.01-0.06,0.01-0.09c-0.02-0.62-0.34-2,0.53-2.09
			C943.55,720.81,946.38,720.97,946.38,720.92z"/>
		<path id="Trazado_468" class="st14" d="M898.41,707.35c0.48-0.05,0.9,0.29,0.95,0.77c0.01,0.06,0.01,0.12,0,0.17
			c-0.25,3.64-0.13,7.3,0.34,10.92c0.1,1.57,0.46,3.11,1.07,4.55c0.18,0.35,0.04,0.78-0.31,0.96c-0.1,0.05-0.21,0.08-0.32,0.08l0,0
			l-12.03,0.07c-0.26,0-0.48-0.21-0.48-0.47c0-0.04,0-0.07,0.01-0.11c0.95-4.14,0.74-8.65,0.36-12.93c-0.2-2.12-0.3-3.26,1.28-3.41
			c1.63-0.14,3.26-0.21,4.88-0.35C894.5,707.58,896.96,707.5,898.41,707.35z"/>
		<path id="Trazado_469" class="st10" d="M915.15,707.28c-0.24-0.04-0.46,0.13-0.49,0.36c-0.01,0.04-0.01,0.08,0,0.12
			c0.31,3.82,0.21,7.66-0.29,11.46c-0.08,1.68-0.5,3.33-1.23,4.86c-0.11,0.19-0.06,0.43,0.11,0.56c0.21,0.13,0.45,0.19,0.69,0.17
			l12.09,0.07c0.24,0,0.43-0.2,0.43-0.44c0-0.04,0-0.07-0.01-0.11c-0.96-4.15-0.76-8.68-0.37-12.97c0.19-2.12,0.3-3.26-1.28-3.41
			c-1.63-0.14-3.26-0.21-4.89-0.35C919.52,707.57,916.45,707.48,915.15,707.28z"/>
		<line id="Línea_18" class="st11" x1="891.21" y1="709.75" x2="897.36" y2="717.95"/>
		<line id="Línea_19" class="st11" x1="897.36" y1="709.13" x2="891.41" y2="718.36"/>
		<line id="Línea_20" class="st11" x1="918.66" y1="710.13" x2="922.01" y2="714.6"/>
		<line id="Línea_21" class="st11" x1="922.01" y1="709.79" x2="918.77" y2="714.82"/>
		<path id="Trazado_470" class="st11" d="M893.24,720.58c1.41-0.07,2.82-0.05,4.23,0.05c0.19,0.02,0.34,0.17,0.36,0.35l0.13,1.11
			c0.01,0.05,0,0.11-0.03,0.15c-0.03,0.02-0.06,0.03-0.1,0.03c-0.59,0.02-1.19-0.05-1.78,0c-0.37,0.03-0.73,0.1-1.09,0.14
			c-0.6,0.05-1.21,0.06-1.81,0.03c-0.85,0.01-1.7-0.09-2.52-0.31c-0.02,0,0.05-0.92,0.05-1.01c0-0.43-0.02-0.47,0.43-0.48
			L893.24,720.58z"/>
		<path id="Trazado_471" class="st11" d="M919.08,716.47c1.41-0.07,2.82-0.05,4.23,0.05c0.19,0.02,0.34,0.17,0.36,0.35l0.13,1.11
			c0.01,0.05,0,0.11-0.03,0.15c-0.03,0.02-0.06,0.03-0.1,0.03c-0.59,0.02-1.19-0.05-1.78,0c-0.37,0.03-0.73,0.1-1.09,0.14
			c-0.6,0.05-1.21,0.07-1.81,0.03c-0.85,0.01-1.7-0.09-2.52-0.31c-0.01,0,0.05-0.92,0.05-1.01c0-0.43-0.01-0.47,0.43-0.48
			L919.08,716.47z"/>
		<path id="Trazado_472" class="st11" d="M921.24,719.55c-1.41-0.07-2.82-0.05-4.23,0.05c-0.19,0.02-0.34,0.17-0.36,0.35l-0.12,1.11
			c-0.02,0.05,0,0.11,0.03,0.15c0.03,0.02,0.06,0.03,0.1,0.03c0.59,0.02,1.18-0.05,1.78,0c0.37,0.03,0.73,0.1,1.09,0.14
			c0.6,0.05,1.21,0.06,1.81,0.03c0.85,0.01,1.7-0.09,2.52-0.31c0.01,0-0.05-0.92-0.05-1.01c0-0.43,0.02-0.47-0.43-0.48
			L921.24,719.55z"/>
		<path id="Trazado_473" class="st13" d="M903.66,717.54c1.57-0.1,3.14-0.1,4.71,0"/>
		<path id="Trazado_474" class="st13" d="M908.38,715.39c0,0,1.74,1.74,1.74,2.15s-2.26,1.84-2.26,1.84"/>
		<path id="Trazado_475" class="st13" d="M929.8,713.82c1.41-0.69,2.87-1.28,4.36-1.78"/>
		<path id="Trazado_476" class="st13" d="M933.35,710.05c0,0,2.27,0.96,2.42,1.33c0.15,0.38-1.39,2.56-1.39,2.56"/>
		<path id="Trazado_477" class="st13" d="M929.76,718.16c1.46,0.59,2.87,1.28,4.24,2.06"/>
		<path id="Trazado_478" class="st13" d="M934.94,718.29c0,0,0.82,2.33,0.62,2.7s-2.83,0.67-2.83,0.67"/>
		<path id="Trazado_479" class="st12" d="M944.05,709.62c0.12,0.3,0.16,0.63,0.12,0.95c0,0.03,0,0.05-0.02,0.07
			c-0.03,0.03-0.07,0.04-0.11,0.04l-2.58,0.1c0,0,0.15-0.76,0.17-0.82c0.09-0.31,0.32-0.23,0.61-0.24L944.05,709.62z"/>
	</g>
</g>
</svg>
