<?xml version="1.0" encoding="utf-8"?>
<!-- Generator: Adobe Illustrator 24.3.0, SVG Export Plug-In . SVG Version: 6.00 Build 0)  -->
<svg version="1.1" id="Capa_1" xmlns="http://www.w3.org/2000/svg" xmlns:xlink="http://www.w3.org/1999/xlink" x="0px" y="0px"
	 viewBox="0 0 285 270" style="enable-background:new 0 0 285 270;" xml:space="preserve">
<style type="text/css">
	.st0{fill:#E6E6E6;}
	.st1{fill:#3F3D56;}
	.st2{opacity:0.2;enable-background:new    ;}
	.st3{fill:#04BFAE;}
	.st4{opacity:0.7;}
	.st5{fill:url(#Trazado_75_1_);}
	.st6{fill:#197BFF;}
	.st7{opacity:0.1;fill:#04BFAE;enable-background:new    ;}
	.st8{fill:#1D79F2;}
	.st9{opacity:0.1;enable-background:new    ;}
	.st10{fill:#FAFAFA;}
</style>
<g id="Grupo_63" transform="translate(-290.425 -1279.154)">
	<path id="Trazado_90" class="st0" d="M403.8,1449.9l-23,37.9l0,3.8c-1.7,0-3.4,0-5-0.1l1.1-49.5l0-0.4l0-0.1l0.1-4.7l-25.2-36.6
		l25.2,33.1l0.1,1l0.9-37.4l-21.8-38l21.9,31.4l-0.1-50.6l0-16.6h0.2l0.4,16.6l0.8,34.2l19.9-24.8l-19.8,30.1l0.4,33.5l18.3-32.7
		l-18.2,37.6l0.2,18.6l26.6-45.5l-26.5,52l0.5,41.4L403.8,1449.9z"/>
	<path id="Trazado_91" class="st0" d="M508.8,1438.6l-7.3,14.3l-18.2,35.8h-4.2l0.1-3.9l-22-31.9l-3.2-4.7l3.6,4.7l21.6,28.4l0.1,1
		l0.7-29.4l0.2-8l-21.8-38l21.9,31.4l-0.2-77.5v-0.3l0,0.3l1.5,61.1l19.9-24.8l-19.8,30.1l0.3,25.8l0.1,7.7l4.3-7.7l14-25l-12.1,25
		l-6.1,12.6l0.2,18.6l18.2-31.2L508.8,1438.6z"/>
	<path id="Trazado_92" class="st1" d="M497.6,1488.2c0,3.3-30.6,13.2-68.4,13.2s-68.4-9.9-68.4-13.2s30.6,1.3,68.4,1.3
		S497.6,1484.9,497.6,1488.2z"/>
	<path id="Trazado_93" class="st2" d="M497.6,1488.2c0,3.3-30.6,13.2-68.4,13.2s-68.4-9.9-68.4-13.2s30.6,1.3,68.4,1.3
		S497.6,1484.9,497.6,1488.2z"/>
	<ellipse id="Elipse_17" class="st1" cx="429.2" cy="1488.2" rx="68.4" ry="6"/>
	<ellipse id="Elipse_18" class="st2" cx="428.7" cy="1488.8" rx="28.1" ry="2.6"/>
	<ellipse id="Elipse_19" class="st0" cx="403.7" cy="1442.2" rx="2.9" ry="2.9"/>
	<ellipse id="Elipse_20" class="st0" cx="456.8" cy="1453" rx="2.9" ry="2.9"/>
	<ellipse id="Elipse_21" class="st0" cx="442.4" cy="1468.3" rx="2.1" ry="2.1"/>
	<path id="Trazado_98" class="st0" d="M367.4,1487.3c8.6,1.9,18.1,0.5,18.1,0.5s-4.5-4.5-13-6.4s-18.1-0.5-18.1-0.5
		S358.8,1485.3,367.4,1487.3z"/>
	<path id="Trazado_99" class="st3" d="M368.2,1490.5c5.9,0.1,11.7-0.8,17.3-2.7c-5.2-2.3-10.9-3.5-16.6-3.7
		c-5.9-0.1-11.7,0.8-17.3,2.7C356.9,1489,362.5,1490.3,368.2,1490.5z"/>
	<path id="Trazado_100" class="st3" d="M368.9,1484c6.7,3.4,16.5,3.8,16.5,3.8s-1-5-7.7-8.4c-6.7-3.4-16.5-3.8-16.5-3.8
		S362.2,1480.7,368.9,1484z"/>
	<path id="Trazado_101" class="st0" d="M529.2,1339.8v-16.6H329.3v164.1h16.6v-68.6h183.3v-16.6H345.9v-62.3L529.2,1339.8
		L529.2,1339.8z"/>
	<rect id="Rectángulo_26" x="512.9" y="1325.1" class="st0" width="17" height="162"/>
	<path id="Trazado_103" class="st0" d="M360.9,1444.5c-1.5,2.4-3.2,2.4-4.7,1.5l-0.1-0.1c-0.1,0-0.1-0.1-0.2-0.1
		c-1.2-0.9-1.7-2.5-0.3-4.7c1.5-2.3,5.7-3.6,6.1-3.7l0,0l0,0C361.8,1437.4,362.4,1442.1,360.9,1444.5z"/>
	<path id="Trazado_104" class="st0" d="M466.9,1383.7c-1.5,2.4-3.2,2.4-4.7,1.5l-0.1-0.1c-0.1,0-0.1-0.1-0.2-0.1
		c-1.2-0.9-1.7-2.5-0.3-4.7c1.5-2.3,5.7-3.6,6.1-3.7l0,0l0,0C467.8,1376.6,468.4,1381.3,466.9,1383.7z"/>
	<path id="Trazado_105" class="st0" d="M406.4,1366.1c1.9,2.1,1.6,3.7,0.3,4.9l-0.1,0.1c-0.1,0.1-0.1,0.1-0.2,0.2
		c-1.2,0.9-2.8,1-4.6-0.9c-1.8-2-2-6.5-2.1-6.8l0,0v0C399.8,1363.5,404.5,1364,406.4,1366.1z"/>
	<g id="Grupo_55" transform="translate(361.203 1330.504)">
		<g id="Grupo_52" transform="translate(0 42.038)" class="st4">
			
				<linearGradient id="Trazado_75_1_" gradientUnits="userSpaceOnUse" x1="-299.3381" y1="-522.9044" x2="-299.3381" y2="-523.9044" gradientTransform="matrix(80.8255 0 0 71.84 24273.459 37681.3867)">
				<stop  offset="0" style="stop-color:#808080;stop-opacity:0.251"/>
				<stop  offset="0.535" style="stop-color:#808080;stop-opacity:0.122"/>
				<stop  offset="1" style="stop-color:#808080;stop-opacity:0.102"/>
			</linearGradient>
			<path id="Trazado_75" class="st5" d="M103,56.9V44.1H38.9v59.3c0,6.9,5.6,12.5,12.5,12.5h39.1c6.9,0,12.5-5.6,12.5-12.5V90.3
				c9.2,0,16.7-7.5,16.7-16.7S112.2,56.9,103,56.9L103,56.9L103,56.9z M103,83.9V63.3c5.7,0,10.3,4.6,10.3,10.3S108.7,83.9,103,83.9
				z"/>
		</g>
		<path id="Trazado_76" class="st6" d="M101,101c-8.4,0-15.2,6.8-15.2,15.2s6.8,15.2,15.2,15.2s15.2-6.8,15.2-15.2l0,0
			C116.2,107.8,109.4,101,101,101z M101,125.6c-5.2,0-9.4-4.2-9.4-9.4s4.2-9.4,9.4-9.4s9.4,4.2,9.4,9.4l0,0
			C110.3,121.4,106.2,125.6,101,125.6L101,125.6z"/>
		<path id="Trazado_77" class="st7" d="M101,101c-8.4,0-15.2,6.8-15.2,15.2s6.8,15.2,15.2,15.2s15.2-6.8,15.2-15.2l0,0
			C116.2,107.8,109.4,101,101,101z M101,125.6c-5.2,0-9.4-4.2-9.4-9.4s4.2-9.4,9.4-9.4s9.4,4.2,9.4,9.4l0,0
			C110.3,121.4,106.2,125.6,101,125.6L101,125.6z"/>
		<path id="Trazado_78" class="st8" d="M42.4,89.3H101v58c0,4.2-3.4,7.6-7.6,7.6l0,0H50c-4.2,0-7.6-3.4-7.6-7.6l0,0V89.3z"/>
		<path id="Trazado_88" class="st9" d="M90.4,89.3v54.2c0,6.3-5.1,11.4-11.4,11.4h5.9c6.3,0,11.4-5.1,11.4-11.4V89.3H90.4z"/>
		<path id="Trazado_89" class="st10" d="M54,45.6c-1,0-2,0.5-2.6,1.3c-0.8,1.4,0.6,3,1.9,3.9c2.3,1.8,4.8,3.5,6.4,6s2.1,5.9,0.3,8.3
			c-2.3,3.1-7.7,3.8-8.2,7.6c-0.3,2.4,1.8,4.5,3.9,5.8c5.3,3,12.1,3.8,15.9,8.6c1.6-3.2,5.1-5.1,8.6-5.9s7.2-0.7,10.8-1.3
			c1.2-0.2,2.4-0.5,3-1.6c1-2-1.8-4.5-0.9-6.5c0.8-1.6,2.9-1.4,4.6-2.1c2.6-1,3.7-4.4,2.9-7.1s-2.8-4.8-5-6.5
			c-5.9-4.7-13.1-7.4-20.3-9.4c-3.4-0.9-7.3-2.4-10.8-2.5C61.1,44,57.3,45,54,45.6z"/>
	</g>
</g>
</svg>
