<?xml version="1.0" encoding="utf-8"?>
<!-- Generator: Adobe Illustrator 24.3.0, SVG Export Plug-In . SVG Version: 6.00 Build 0)  -->
<svg version="1.1" id="Capa_1" xmlns="http://www.w3.org/2000/svg" xmlns:xlink="http://www.w3.org/1999/xlink" x="0px" y="0px"
	 viewBox="0 0 369 306" style="enable-background:new 0 0 369 306;" xml:space="preserve">
<style type="text/css">
	.st0{opacity:0.1;fill:#1D79F2;enable-background:new    ;}
	.st1{fill:#3F3D56;}
	.st2{fill:#FFFFFF;}
	.st3{fill:#1D79F2;}
	.st4{fill:#E6E6E6;}
	.st5{fill:#CBE0F4;}
	.st6{opacity:0.1;}
</style>
<g id="Grupo_80" transform="translate(-1153 -710.782)">
	<path id="Trazado_413" class="st0" d="M1504.45,819.84c-3.55-6.89-8.2-13.15-13.77-18.54l-190.96-1.59l157.22-18.67
		c-10.29-3.44-21.05-5.25-31.9-5.35c-15.14-10.33-34.59-16.55-55.81-16.55c-17.9-0.14-35.51,4.52-51,13.49
		c-12.91-5.55-26.82-8.39-40.88-8.33c-42.43,0-77.78,24.84-85.71,57.79L1504.45,819.84z"/>
	<path id="Trazado_414" class="st0" d="M1511.16,847.46c-0.01-9.03-2.05-17.94-5.95-26.08l-330.96,29.38
		c-3.36,5.12-5.97,10.7-7.75,16.55l102.49,12.92l-104.82,9.42c3.15,37.29,40.97,66.75,87.17,66.75c23.26,0,44.39-7.46,60.04-19.64
		c15.71,12.4,37.03,20.02,60.55,20.02c34.88,0,64.98-16.79,79-41.06c28.12-7.55,49.97-26.49,57.45-50.2l-129.61-16.98h132.4V847.46z
		"/>
	<path id="Trazado_305" class="st1" d="M1382.49,833.34h-0.66v-32.99c0-6.23-5.05-11.29-11.29-11.29h-73.47
		c-6.23,0-11.29,5.05-11.29,11.29v14.45h-0.25c-0.37,0-0.66,0.3-0.66,0.66v6.46c0,0.37,0.3,0.66,0.66,0.66h0.25v6.47h-0.31
		c-0.37,0-0.66,0.3-0.66,0.66v12.23c0,0.37,0.3,0.66,0.66,0.66h0.31v4.74h-0.28c-0.37,0-0.66,0.3-0.66,0.66v12.35
		c0,0.37,0.3,0.66,0.66,0.66h0.28v111.92c0,6.23,5.05,11.29,11.29,11.29l0,0h73.47c6.23,0,11.29-5.05,11.29-11.29V857h0.66
		c0.37,0,0.66-0.3,0.66-0.66l0,0v-22.33C1383.15,833.64,1382.85,833.35,1382.49,833.34z"/>
	<path id="Trazado_307" class="st2" d="M1368.27,794.15h-11v1.32c0,3.47-2.81,6.28-6.28,6.28h-35.05c-3.47,0-6.28-2.81-6.28-6.28
		v-1.33h-10.31c-4.21,0-7.63,3.42-7.63,7.63l0,0v169.77c0,4.21,3.42,7.63,7.63,7.63h68.92c4.21,0,7.62-3.41,7.62-7.62V801.78
		C1375.9,797.57,1372.48,794.15,1368.27,794.15L1368.27,794.15L1368.27,794.15z"/>
	<path id="Trazado_308" class="st3" d="M1348.57,958.57h-29.53c-4.4,0-7.96-3.56-7.97-7.96s3.56-7.96,7.96-7.97c0,0,0.01,0,0.01,0
		h29.53c4.4,0,7.96,3.56,7.97,7.96S1352.98,958.57,1348.57,958.57C1348.58,958.57,1348.57,958.57,1348.57,958.57z"/>
	<path id="Trazado_309" class="st4" d="M1360.15,893.18h-52.69c-1.52,0-2.75-1.23-2.75-2.75c0-1.52,1.23-2.75,2.75-2.75h52.69
		c1.52,0,2.75,1.23,2.75,2.75C1362.9,891.95,1361.67,893.18,1360.15,893.18z"/>
	<path id="Trazado_310" class="st4" d="M1360.15,901.28h-52.69c-1.52,0-2.75-1.23-2.75-2.75c0-1.52,1.23-2.75,2.75-2.75h52.69
		c1.52,0,2.75,1.23,2.75,2.75C1362.9,900.05,1361.67,901.28,1360.15,901.28z"/>
	<path id="Trazado_311" class="st4" d="M1360.15,909.39h-52.69c-1.52,0-2.75-1.23-2.75-2.75s1.23-2.75,2.75-2.75h52.69
		c1.52,0,2.75,1.23,2.75,2.75S1361.67,909.39,1360.15,909.39z"/>
	<path id="Trazado_312" class="st4" d="M1360.15,917.49h-52.69c-1.52,0-2.75-1.23-2.75-2.75s1.23-2.75,2.75-2.75h52.69
		c1.52,0,2.75,1.23,2.75,2.75S1361.67,917.49,1360.15,917.49z"/>
	<path id="Trazado_313" class="st4" d="M1324.25,925.6h-16.79c-1.52,0-2.75-1.23-2.75-2.75s1.23-2.75,2.75-2.75h16.79
		c1.52,0,2.75,1.23,2.75,2.75S1325.77,925.6,1324.25,925.6z"/>
	<path id="Trazado_314" class="st5" d="M1368.4,870.64h-69.18c-1.27,0-2.31-1.03-2.31-2.31v-51.34c0-1.27,1.03-2.31,2.31-2.31h69.18
		c1.27,0,2.31,1.03,2.31,2.31v51.34C1370.7,869.61,1369.67,870.64,1368.4,870.64L1368.4,870.64z"/>
	<g id="Grupo_66" transform="translate(1369.478 806.43)" class="st6">
		<path id="Trazado_315" d="M11.17,49.56v-1.2c-0.02,0.31-0.02,0.62,0,0.93C11.17,49.38,11.17,49.47,11.17,49.56z"/>
	</g>
</g>
</svg>
