<?xml version="1.0" encoding="utf-8"?>
<!-- Generator: Adobe Illustrator 24.3.0, SVG Export Plug-In . SVG Version: 6.00 Build 0)  -->
<svg version="1.1" id="Capa_1" xmlns="http://www.w3.org/2000/svg" xmlns:xlink="http://www.w3.org/1999/xlink" x="0px" y="0px"
	 viewBox="0 0 285 270" style="enable-background:new 0 0 285 270;" xml:space="preserve">
<style type="text/css">
	.st0{fill:#2F2E41;}
	.st1{fill:#FFB8B8;}
	.st2{fill:#AED2F2;}
	.st3{fill:#1D79F2;}
	.st4{fill:#116ADE;}
	.st5{fill:#3F3D56;}
	.st6{fill:none;stroke:#D0CDE1;stroke-width:2;stroke-miterlimit:10;}
	.st7{fill:#D0CDE1;}
</style>
<g id="Grupo_58" transform="translate(-1906.448 2338)">
	<circle id="Elipse_28" class="st0" cx="2078.64" cy="-2233.76" r="10.67"/>
	<path id="Trazado_186" class="st0" d="M2081.61-2244.14c5.89,0,10.67,4.78,10.67,10.67c0,1.77-0.44,3.51-1.28,5.06
		c3.68-4.6,2.93-11.31-1.67-14.99c-4.6-3.68-11.31-2.93-14.99,1.67c-0.4,0.5-0.75,1.03-1.06,1.6
		C2075.3-2242.66,2078.37-2244.14,2081.61-2244.14z"/>
	<circle id="Elipse_29" class="st0" cx="2058.7" cy="-2265.12" r="31.34"/>
	<path id="Trazado_187" class="st0" d="M2034.11-2284.57c11.22-12.62,30.43-14.08,43.43-3.29c-0.26-0.24-0.51-0.49-0.78-0.73
		c-12.94-11.5-32.75-10.33-44.24,2.6s-10.33,32.75,2.6,44.24c0.27,0.24,0.54,0.46,0.81,0.69
		C2023.69-2252.69,2022.88-2271.95,2034.11-2284.57z"/>
	<circle id="Elipse_30" class="st1" cx="2058.44" cy="-2254.24" r="20.18"/>
	<path id="Trazado_188" class="st1" d="M2044.1-2247.86c0,0,2.66,24.43-1.59,27.09s24.43,6.37,24.43,6.37s-4.25-26.56,6.37-33.46
		H2044.1z"/>
	<path id="Trazado_189" class="st2" d="M2069.59-2225.02c0,0,7.91-3.69-3.48-2.38c-7.28,0.66-14.6-0.63-21.22-3.73
		c0,0-3.45-3.45-3.98,0.27c-0.53,3.72,1.59,10.62-10.09,11.69c-11.69,1.06-22.31-2.12-26.56,5.84c-4.25,7.97-2.12,42.49-2.12,42.49
		s7.97,28.68,14.34,32.93s62.15-1.59,62.15-1.59l15.94-28.69v-33.46c0,0-2.12-11.69-17-8.5c0,0-9.56-2.12-9.03-6.91
		S2069.59-2225.02,2069.59-2225.02z"/>
	<path id="Trazado_190" class="st0" d="M2018.58-2117.61c0.33-1.43,0.55-2.24,0.55-2.24l-0.17-1.16l-1.75-11.88l-0.74-5.01
		c6.37-2.66,7.97-14.87,7.97-14.87l0.24-0.14l1.09-0.65l0,0l3.9-2.34l0.08-0.05l1.58,1.05l3.2,2.14c8.49,6.34,19.26,8.81,29.67,6.8
		c2.4-0.41,4.74-1.09,6.98-2.02l7.73-2.58l0.24-0.08l0.24,0.04l4.53,0.69l0.08,0.02l0.38,0.06l-1.05,7.26l-1.52,10.54
		c4.02,2.13,7.59,6.13,10.72,11.05c0.69,1.09,1.36,2.22,2.01,3.4c0.84,1.52,1.65,3.11,2.42,4.73c0.09,0.19,0.18,0.39,0.28,0.59
		c0.3,0.64,0.59,1.28,0.87,1.92h-80.92c0.11-0.65,0.21-1.27,0.31-1.86c0.01-0.02,0.01-0.04,0.01-0.06c0.04-0.2,0.07-0.39,0.11-0.59
		C2017.97-2114.81,2018.31-2116.43,2018.58-2117.61z"/>
	<path id="Trazado_191" class="st0" d="M2015.41-2219.71c3.63,7.41,4.93,15.74,3.72,23.9c-2.12,13.28,6.37,46.21,6.37,46.21
		l6.37-1.59c0,0-4.25-27.62-3.19-33.99s1.06-31.34-4.25-34.53C2019.13-2222.9,2015.41-2219.71,2015.41-2219.71z"/>
	<path id="Trazado_192" class="st0" d="M2077.19-2208.67l2.24,58.81l4.25,2.66c0,0,6.11-64.54,2.92-64.54h-6.48
		c-1.61,0-2.92,1.31-2.92,2.92C2077.19-2208.77,2077.19-2208.72,2077.19-2208.67L2077.19-2208.67z"/>
	<circle id="Elipse_31" class="st3" cx="2028.43" cy="-2153.58" r="2.66"/>
	<circle id="Elipse_32" class="st3" cx="2081.54" cy="-2150.92" r="2.66"/>
	<path id="Trazado_193" class="st0" d="M2041.18-2279.47v20.19h4.67l5.95-6.37l-0.8,6.37h20.66l-1.27-6.37l2.55,6.37h3.29v-20.19
		H2041.18z"/>
	<ellipse id="Elipse_33" class="st1" cx="2037.99" cy="-2258.49" rx="1.59" ry="2.92"/>
	<ellipse id="Elipse_34" class="st1" cx="2078.89" cy="-2258.49" rx="1.59" ry="2.92"/>
	<path id="Trazado_194" class="st1" d="M2089.78-2151.19c0,0-24.17-4.52-25.76,3.45s26.82,4.52,26.82,4.52L2089.78-2151.19z"/>
	<path id="Trazado_195" class="st2" d="M2089.25-2205.9c0,0,57.9,46.21,47.27,57.37c-10.63,11.16-50.99,7.97-50.99,7.97l2.66-13.28
		l23.37-2.66l-11.69-11.69l-10.62,1.06L2089.25-2205.9z"/>
	<path id="Trazado_196" class="st1" d="M2003.73-2128.88l7.44,5.84c0,0,5.31,16.47,13.28,11.69c7.97-4.78-7.44-21.78-7.44-21.78
		l-9.03-3.19L2003.73-2128.88z"/>
	<path id="Trazado_197" class="st2" d="M2011.16-2214.4l-7.42,2.23c0,0-51.54,38.14-53.67,48.76s10.09,16.47,10.09,16.47
		l46.21,21.78l4.78-12.75l-21.78-11.15c0,0,1.59-3.19-4.78-3.72c-6.37-0.53-7.44-7.44-7.44-7.44s12.75-19.65,19.65-15.4
		c6.91,4.25,9.03,7.44,9.03,7.44L2011.16-2214.4z"/>
	<path id="Trazado_198" class="st4" d="M2116.94-2115.79v1.78c0,0.49-0.09,0.97-0.27,1.43c-0.08,0.2-0.17,0.4-0.28,0.59
		c-0.71,1.19-2,1.92-3.39,1.92h-130.89c-1.39,0-2.68-0.73-3.39-1.92c-0.11-0.19-0.21-0.38-0.28-0.59c-0.18-0.46-0.27-0.94-0.27-1.43
		v-1.78c0-2.17,1.76-3.94,3.93-3.94c0,0,0,0,0,0h7.54v-0.83c0-0.09,0.07-0.16,0.16-0.16l0,0h3.94c0.09,0,0.16,0.07,0.16,0.16l0,0
		v0.83h2.46v-0.83c0-0.09,0.07-0.16,0.16-0.16l0,0h3.94c0.09,0,0.16,0.07,0.16,0.16l0,0v0.83h2.46v-0.83c0-0.09,0.07-0.16,0.16-0.16
		l0,0h3.94c0.09,0,0.16,0.07,0.16,0.16l0,0v0.83h2.46v-0.83c0-0.09,0.07-0.16,0.16-0.16l0,0h3.94c0.09,0,0.16,0.07,0.16,0.16l0,0
		v0.83h2.46v-0.83c0-0.09,0.07-0.16,0.16-0.16l0,0h3.94c0.09,0,0.16,0.07,0.16,0.16l0,0v0.83h2.46v-0.83c0-0.09,0.07-0.16,0.16-0.16
		l0,0h3.94c0.09,0,0.16,0.07,0.16,0.16l0,0v0.83h2.46v-0.83c0-0.09,0.07-0.16,0.16-0.16l0,0h30.84c0.09,0,0.16,0.07,0.16,0.16l0,0
		v0.83h2.46v-0.83c0-0.09,0.07-0.16,0.16-0.16l0,0h3.94c0.09,0,0.16,0.07,0.16,0.16v0.83h2.46v-0.83c0-0.09,0.07-0.16,0.16-0.16l0,0
		h3.94c0.09,0,0.16,0.07,0.16,0.16l0,0v0.83h2.46v-0.83c0-0.09,0.07-0.16,0.16-0.16l0,0h3.94c0.09,0,0.16,0.07,0.16,0.16l0,0v0.83
		h2.46v-0.83c0-0.09,0.07-0.16,0.16-0.16l0,0h3.94c0.09,0,0.16,0.07,0.16,0.16v0.83h2.46v-0.83c0-0.09,0.07-0.16,0.16-0.16l0,0h3.94
		c0.09,0,0.16,0.07,0.16,0.16l0,0v0.83h2.46v-0.83c0-0.09,0.07-0.16,0.16-0.16l0,0h3.94c0.09,0,0.16,0.07,0.16,0.16l0,0v0.83h11.48
		C2115.18-2119.73,2116.94-2117.97,2116.94-2115.79C2116.94-2115.79,2116.94-2115.79,2116.94-2115.79z"/>
	<rect id="Rectángulo_46" x="1940.14" y="-2112.59" class="st5" width="214.86" height="0.59"/>
	<path id="Trazado_199" class="st4" d="M2106.4-2190.72h-48.79v-1.01h-22.12v1.01h-48.99c-1.82,0-3.3,1.48-3.3,3.3v66.8
		c0,1.82,1.48,3.3,3.3,3.3h119.9c1.82,0,3.3-1.48,3.3-3.3v-66.8C2109.7-2189.24,2108.22-2190.72,2106.4-2190.72z"/>
	<circle id="Elipse_35" class="st6" cx="2046.55" cy="-2167.4" r="7.33"/>
	<circle id="Elipse_36" class="st7" cx="2044.2" cy="-2164.76" r="7.33"/>
</g>
</svg>
