<?xml version="1.0" encoding="utf-8"?>
<!-- Generator: Adobe Illustrator 25.0.0, SVG Export Plug-In . SVG Version: 6.00 Build 0)  -->
<svg version="1.1" id="Capa_1" xmlns="http://www.w3.org/2000/svg" xmlns:xlink="http://www.w3.org/1999/xlink" x="0px" y="0px"
	 viewBox="0 0 162.1 109.4" style="enable-background:new 0 0 162.1 109.4;" xml:space="preserve">
<style type="text/css">
	.st0{opacity:0.1;fill:#1D79F2;enable-background:new    ;}
	.st1{fill:#FFFFFF;}
	.st2{fill:#3F3D56;}
	.st3{fill:#F2F2F2;}
	.st4{fill:#1D79F2;}
	.st5{fill:#2F2E41;}
	.st6{opacity:0.3;fill:#1D79F2;enable-background:new    ;}
	.st7{opacity:0.4;fill:#1D79F2;enable-background:new    ;}
</style>
<g id="Grupo_93" transform="translate(-459 -705.782)">
	<g id="Grupo_88" transform="translate(-7 67)">
		<path id="Trazado_364" class="st0" d="M606.7,674.7c-1.3-2.5-2.9-4.8-4.9-6.8l-67.4-0.6l55.5-6.9c-3.6-1.3-7.4-1.9-11.3-2
			c-5.3-3.8-12.2-6.1-19.7-6.1c-6.3-0.1-12.5,1.7-18,5c-4.6-2-9.5-3.1-14.4-3.1c-15,0-27.5,9.2-30.3,21.3L606.7,674.7z"/>
		<path id="Trazado_365" class="st0" d="M608.7,685.3c0-3.3-0.7-6.6-2.1-9.6l-116.8,10.8c-1.2,1.9-2.1,3.9-2.7,6.1l36.2,4.8l-37,3.5
			c1.1,13.8,14.5,24.6,30.8,24.6c8.2,0,15.7-2.8,21.2-7.2c5.5,4.6,13.1,7.4,21.4,7.4c12.3,0,22.9-6.2,27.9-15.1
			c9.9-2.8,17.6-9.8,20.3-18.5l-45.7-6.3h46.7L608.7,685.3L608.7,685.3z"/>
	</g>
	<g id="Grupo_90" transform="translate(9.406 76.036)">
		<rect id="Rectángulo_152" x="503.4" y="649.6" class="st1" width="48.7" height="76"/>
		<g id="Grupo_89" transform="translate(545.163 646.889)">
			<rect id="Rectángulo_115" x="-41.5" y="50.9" class="st2" width="48.6" height="13.8"/>
			<path id="Trazado_419" class="st3" d="M4,16.8l-1.9,1l1.7-1.3c-0.3-0.5-0.6-0.9-0.9-1.3l-8.4,2.2l7.6-3c-0.3-0.3-0.7-0.6-1.1-0.9
				l-12.8,2.2c-1.4,1.8-2.1,4-2.1,6.3H5.3C5.3,20.1,4.8,18.3,4,16.8L4,16.8z"/>
			<path id="Trazado_421" class="st2" d="M-4.5,21.8l-6.6-10.2c0,0,10,3.6,8.8,10.2L-4.5,21.8L-4.5,21.8z"/>
			<path id="Trazado_422" class="st4" d="M-4.3,21.8l6.6-10.2c0,0-10,3.6-8.8,10.2H-4.3z"/>
			<path id="Trazado_423" class="st5" d="M7.1,78.7h-48.7v-76H7.1V78.7z M-41.4,78.4H6.9V2.9h-48.3V78.4z"/>
			<rect id="Rectángulo_117" x="-41.4" y="4.5" class="st5" width="48.5" height="0.2"/>
			<ellipse id="Elipse_98" class="st4" cx="-40.2" cy="3.7" rx="0.5" ry="0.5"/>
			<ellipse id="Elipse_99" class="st4" cx="-38.9" cy="3.7" rx="0.5" ry="0.5"/>
			<ellipse id="Elipse_100" class="st4" cx="-37.7" cy="3.7" rx="0.5" ry="0.5"/>
			<rect id="Rectángulo_118" x="-39.7" y="6.2" class="st4" width="2" height="1.2"/>
			<rect id="Rectángulo_119" x="-39.7" y="15.5" class="st4" width="10" height="1.2"/>
			<rect id="Rectángulo_120" x="-4.2" y="6.2" class="st3" width="10" height="1.2"/>
			<rect id="Rectángulo_121" x="-39.7" y="17.6" class="st3" width="16.8" height="0.7"/>
			<rect id="Rectángulo_122" x="-39.7" y="19.1" class="st3" width="15.9" height="0.7"/>
			<rect id="Rectángulo_123" x="-39.7" y="20.6" class="st3" width="11.6" height="0.7"/>
			<rect id="Rectángulo_124" x="-35.9" y="41.8" class="st3" width="6.6" height="0.7"/>
			<rect id="Rectángulo_125" x="-35.9" y="43.3" class="st3" width="6.2" height="0.7"/>
			<rect id="Rectángulo_126" x="-35.9" y="44.9" class="st3" width="4.5" height="0.7"/>
			<rect id="Rectángulo_127" x="-20.5" y="41.8" class="st3" width="6.6" height="0.7"/>
			<rect id="Rectángulo_128" x="-20.5" y="43.3" class="st3" width="6.2" height="0.7"/>
			<rect id="Rectángulo_129" x="-20.5" y="44.9" class="st3" width="4.5" height="0.7"/>
			<rect id="Rectángulo_130" x="-4.6" y="41.8" class="st3" width="6.6" height="0.7"/>
			<rect id="Rectángulo_131" x="-4.6" y="43.3" class="st3" width="6.2" height="0.7"/>
			<rect id="Rectángulo_132" x="-4.6" y="44.9" class="st3" width="4.5" height="0.7"/>
			<rect id="Rectángulo_133" x="-25.6" y="68.7" class="st4" width="10" height="1.2"/>
			<rect id="Rectángulo_134" x="-25.6" y="70.7" class="st3" width="16.8" height="0.7"/>
			<rect id="Rectángulo_135" x="-25.6" y="72.3" class="st3" width="15.9" height="0.7"/>
			<rect id="Rectángulo_136" x="-25.6" y="73.8" class="st3" width="11.6" height="0.7"/>
			<rect id="Rectángulo_137" x="-36.7" y="28.4" class="st6" width="39.5" height="0.2"/>
			<rect id="Rectángulo_138" x="-36.8" y="32.5" class="st6" width="8.4" height="7.8"/>
			<rect id="Rectángulo_139" x="-21.4" y="32.5" class="st2" width="8.4" height="7.8"/>
			<rect id="Rectángulo_140" x="-5.5" y="32.5" class="st2" width="8.4" height="7.8"/>
			<path id="Trazado_424" class="st4" d="M-18.3,40.3l-0.1,0c0-0.1,0.1-3.2,1.2-4l0.1,0.1C-18.3,37.2-18.3,40.3-18.3,40.3z"/>
			<ellipse id="Elipse_101" class="st4" cx="-16.6" cy="35.7" rx="0.6" ry="0.6"/>
			<path id="Trazado_425" class="st4" d="M-16.8,37.7c-0.3,0.1-0.6,0.1-0.9,0c0.4-0.5,1-0.7,1.6-0.6C-16.2,37.5-16.5,37.6-16.8,37.7
				z"/>
			<path id="Trazado_426" class="st4" d="M-2.4,40.3l-0.1,0c0-0.1,0.1-3.2,1.2-4l0.1,0.1C-2.4,37.2-2.4,40.3-2.4,40.3z"/>
			<rect id="Rectángulo_141" x="-39.7" y="55.3" class="st4" width="10" height="1.2"/>
			<rect id="Rectángulo_142" x="-39.7" y="57.3" class="st3" width="16.8" height="0.7"/>
			<rect id="Rectángulo_143" x="-39.7" y="58.9" class="st3" width="15.9" height="0.7"/>
			<rect id="Rectángulo_144" x="-39.7" y="60.4" class="st3" width="11.6" height="0.7"/>
			<ellipse id="Elipse_103" class="st7" cx="-2.7" cy="56.9" rx="3.6" ry="3.7"/>
			<ellipse id="Elipse_104" class="st7" cx="-9.3" cy="58.7" rx="2.5" ry="2.6"/>
			<polygon id="Rectángulo_151" class="st2" points="-39.7,34.8 -37.5,27.3 -29.5,29.8 -31.6,37.3 			"/>
			<path id="Trazado_433" class="st4" d="M-36.7,35.7l-0.1,0c0-0.1,0.9-3,2.3-3.5l0,0.1C-35.8,32.8-36.7,35.7-36.7,35.7z"/>
			<ellipse id="Elipse_127" class="st4" cx="-33.8" cy="31.8" rx="0.6" ry="0.6"/>
			<path id="Trazado_434" class="st4" d="M-34.5,33.7c-0.3,0-0.6-0.1-0.9-0.2c0.5-0.4,1.2-0.4,1.7-0.1
				C-33.9,33.6-34.2,33.7-34.5,33.7z"/>
		</g>
	</g>
</g>
</svg>
