<?xml version="1.0" encoding="utf-8"?>
<!-- Generator: Adobe Illustrator 24.3.0, SVG Export Plug-In . SVG Version: 6.00 Build 0)  -->
<svg version="1.1" id="Capa_1" xmlns="http://www.w3.org/2000/svg" xmlns:xlink="http://www.w3.org/1999/xlink" x="0px" y="0px"
	 viewBox="0 0 369 306" style="enable-background:new 0 0 369 306;" xml:space="preserve">
<style type="text/css">
	.st0{opacity:0.1;fill:#1D79F2;enable-background:new    ;}
	.st1{fill:#1D79F2;}
	.st2{opacity:0.25;enable-background:new    ;}
	.st3{fill:#C8CAD7;}
	.st4{opacity:0.1;enable-background:new    ;}
	.st5{fill:#474157;}
	.st6{fill:#FFFFFF;}
	.st7{fill:#EDEDF4;}
	.st8{opacity:0.2;fill:#1D79F2;enable-background:new    ;}
</style>
<g id="Grupo_79" transform="translate(-325 -627.782)">
	<path id="Trazado_364" class="st0" d="M675.45,727.05c-3.55-6.89-8.2-13.15-13.77-18.54l-190.96-1.59l157.22-18.67
		c-10.29-3.44-21.05-5.25-31.9-5.35c-15.14-10.33-34.59-16.55-55.81-16.55c-17.9-0.14-35.51,4.52-51,13.49
		c-12.91-5.55-26.82-8.39-40.88-8.33c-42.43,0-77.78,24.84-85.71,57.79L675.45,727.05z"/>
	<path id="Trazado_365" class="st0" d="M682.16,754.68c-0.01-9.03-2.05-17.94-5.95-26.08l-330.96,29.38
		c-3.36,5.12-5.97,10.7-7.75,16.55l102.49,12.92l-104.82,9.42c3.15,37.29,40.97,66.75,87.17,66.75c23.25,0,44.38-7.47,60.04-19.64
		c15.71,12.4,37.03,20.02,60.55,20.02c34.88,0,64.98-16.79,79-41.06c28.12-7.54,49.97-26.49,57.45-50.2l-129.61-16.98h132.4V754.68z
		"/>
	<path id="Trazado_369" class="st1" d="M422.4,790.35c-2.07,2.08-11.82,4.34-11.82,4.34s2.24-9.76,4.3-11.83
		c2.07-2.07,5.43-2.08,7.5-0.01s2.08,5.43,0.01,7.5H422.4z"/>
	<path id="Trazado_370" class="st1" d="M424.21,811.79c-1.69,2.39-10.92,6.28-10.92,6.28s0.56-10,2.25-12.39
		c1.69-2.39,5-2.97,7.39-1.28C425.33,806.09,425.9,809.4,424.21,811.79L424.21,811.79L424.21,811.79z"/>
	<path id="Trazado_376" class="st2" d="M422.4,790.35c-2.07,2.08-11.82,4.34-11.82,4.34s2.24-9.76,4.3-11.83
		c2.07-2.07,5.43-2.08,7.5-0.01s2.08,5.43,0.01,7.5H422.4z"/>
	<path id="Trazado_377" class="st2" d="M424.21,811.79c-1.69,2.39-10.92,6.28-10.92,6.28s0.56-10,2.25-12.39
		c1.69-2.39,5-2.97,7.39-1.28C425.33,806.09,425.9,809.4,424.21,811.79L424.21,811.79L424.21,811.79z"/>
	<ellipse id="Elipse_69" class="st0" cx="508.88" cy="891.78" rx="54.97" ry="3.26"/>
	<path id="Trazado_389" class="st3" d="M534.15,886.05v1.97h-58.23v-1.6c9.91-3.67,14.98-14.68,11.31-24.59
		c-1.77-4.77-5.36-8.64-9.99-10.76h56.53c-9.61,4.41-13.83,15.78-9.42,25.4C526.32,880.76,529.81,884.17,534.15,886.05
		L534.15,886.05z"/>
	<path id="Trazado_390" class="st4" d="M533.77,851.07c-5.26,2.42-9.15,7.08-10.58,12.69h-35.37c-1.43-5.61-5.32-10.28-10.58-12.69
		H533.77z"/>
	<path id="Trazado_391" class="st3" d="M409.23,841.03v11.05c0,6.1,4.47,11.05,9.98,11.05h171.35c5.51,0,9.98-4.95,9.98-11.05
		v-11.05H409.23z"/>
	<path id="Trazado_392" class="st4" d="M534.15,886.05v1.97h-58.23v-1.6c1.6-0.59,3.11-1.4,4.49-2.39h50.18
		C531.7,884.83,532.89,885.5,534.15,886.05z"/>
	<path id="Rectángulo_86" class="st3" d="M459.59,884.64h90.9c1.61,0,2.92,1.31,2.92,2.92v0c0,1.61-1.31,2.92-2.92,2.92h-90.9
		c-1.61,0-2.92-1.31-2.92-2.92v0C456.67,885.94,457.98,884.64,459.59,884.64z"/>
	<path id="Trazado_393" class="st5" d="M600.54,719.89c0-5.51-4.47-9.98-9.98-9.98l0,0H419.21c-5.51,0-9.98,4.47-9.98,9.98
		c0,0,0,0,0,0v123.29h191.31V719.89z"/>
	<path id="Trazado_415" class="st6" d="M430.45,719.43h148.87c8.84,0,16,7.16,16,16v83.77c0,8.84-7.16,16-16,16H430.45
		c-8.84,0-16-7.16-16-16v-83.77C414.45,726.59,421.61,719.43,430.45,719.43z"/>
	<circle id="Elipse_71" class="st6" cx="504.88" cy="714.67" r="2.3"/>
	<circle id="Elipse_72" class="st6" cx="504.88" cy="852.55" r="5.68"/>
	<path id="Trazado_394" class="st3" d="M595.32,724.34H414.45c0-2.71,2.2-4.91,4.91-4.91h171.04
		C593.12,719.43,595.32,721.63,595.32,724.34z"/>
	<circle id="Elipse_73" class="st7" cx="419.36" cy="721.89" r="1.23"/>
	<circle id="Elipse_74" class="st7" cx="423.05" cy="721.89" r="1.23"/>
	<circle id="Elipse_75" class="st7" cx="426.73" cy="721.89" r="1.23"/>
	<rect id="Rectángulo_88" x="421.21" y="728.49" class="st1" width="46.37" height="2.76"/>
	<rect id="Rectángulo_89" x="421.21" y="809.25" class="st1" width="46.37" height="2.76"/>
	<rect id="Rectángulo_90" x="421.21" y="815.39" class="st8" width="85.98" height="2.76"/>
	<rect id="Rectángulo_91" x="421.21" y="819.39" class="st8" width="85.98" height="2.76"/>
	<rect id="Rectángulo_92" x="421.21" y="823.38" class="st8" width="85.98" height="2.76"/>
	<rect id="Rectángulo_93" x="421.21" y="735.86" class="st8" width="85.37" height="46.37"/>
	<rect id="Rectángulo_94" x="422.13" y="786.53" class="st8" width="19.96" height="18.42"/>
	<rect id="Rectángulo_95" x="486.61" y="786.53" class="st8" width="19.96" height="18.42"/>
	<rect id="Rectángulo_96" x="453.91" y="786.53" class="st8" width="19.96" height="18.42"/>
	<rect id="Rectángulo_97" x="524.8" y="749.35" class="st8" width="58.75" height="43.25"/>
	<rect id="Rectángulo_98" x="530.99" y="758.12" class="st7" width="46.37" height="2.76"/>
	<rect id="Rectángulo_99" x="530.99" y="763.85" class="st7" width="46.37" height="2.76"/>
	<rect id="Rectángulo_100" x="530.99" y="769.59" class="st7" width="46.37" height="2.76"/>
	<rect id="Rectángulo_101" x="530.99" y="775.32" class="st7" width="46.37" height="2.76"/>
	<rect id="Rectángulo_102" x="530.99" y="781.05" class="st7" width="46.37" height="2.76"/>
	<rect id="Rectángulo_103" x="531.96" y="797.5" class="st1" width="44.42" height="7.78"/>
	<rect id="Rectángulo_104" x="529.59" y="823.42" class="st1" width="29.79" height="5.22"/>
</g>
</svg>
