<?xml version="1.0" encoding="utf-8"?>
<!-- Generator: Adobe Illustrator 25.0.0, SVG Export Plug-In . SVG Version: 6.00 Build 0)  -->
<svg version="1.1" id="Capa_1" xmlns="http://www.w3.org/2000/svg" xmlns:xlink="http://www.w3.org/1999/xlink" x="0px" y="0px"
	 viewBox="0 0 384 384" style="enable-background:new 0 0 384 384;" xml:space="preserve">
<style type="text/css">
	.st0{fill:#0455BF;}
</style>
<g>
	<g>
		<path class="st0" d="M358.2,264.9c-25.8,0-50.8-4.2-74-11.9c-7.2-2.2-15.4-0.6-21.1,5.1l-45.6,45.7
			c-58.8-29.8-106.8-77.8-136.6-136.5l45.6-45.8c5.7-5.7,7.4-13.9,5.1-21.1c-7.7-23.2-11.9-48.2-11.9-74
			c0.1-11.4-9.1-20.6-20.6-20.6H26.4C15,5.7,5.7,14.9,5.7,26.4c0,194.7,157.7,352.4,352.4,352.4c11.5,0,20.7-9.2,20.7-20.7v-72.6
			C378.9,274.1,369.6,264.9,358.2,264.9z"/>
	</g>
</g>
</svg>
