<?xml version="1.0" encoding="utf-8"?>
<!-- Generator: Adobe Illustrator 25.0.0, SVG Export Plug-In . SVG Version: 6.00 Build 0)  -->
<svg version="1.1" id="Capa_1" xmlns="http://www.w3.org/2000/svg" xmlns:xlink="http://www.w3.org/1999/xlink" x="0px" y="0px"
	 viewBox="0 0 111.2 48" style="enable-background:new 0 0 111.2 48;" xml:space="preserve">
<style type="text/css">
	.st0{fill:#FFFFFF;}
	.st1{font-family:'Inconsolata-SemiBold';}
	.st2{font-size:18.3619px;}
	.st3{opacity:0.117;fill:#FFFFFF;enable-background:new    ;}
</style>
<g id="Grupo_36" transform="translate(400.06 -3644.023)">
	<g id="Grupo_35" transform="translate(-400.06 3644.023)">
		<path id="Trazado_30" class="st0" d="M24.3,11.5c-1.1,0-2,0.9-2,2s0.9,2,2,2c1.1,0,2-0.9,2-2c0-0.5-0.2-1.1-0.6-1.4
			C25.4,11.7,24.9,11.5,24.3,11.5z"/>
		<path id="Trazado_31" class="st0" d="M35.7,3.3L35.7,3.3c-0.1-0.6-0.6-1-1.2-1.2c-2.3-0.6-5.8,0-9.8,1.6
			c-3.8,1.5-7.3,3.7-10.3,6.5c-0.8,0.8-1.6,1.7-2.3,2.6c-1.5-0.1-3.1,0.1-4.5,0.7c-4.4,1.9-5.7,6.9-6,8.9c-0.2,1,0.5,2,1.6,2.2
			c0.2,0,0.3,0,0.5,0h0l4.9-0.5c0,0.1,0,0.1,0,0.2c0.1,0.6,0.3,1.2,0.8,1.6l2.4,2.4c0.4,0.4,1,0.7,1.6,0.8l0.2,0L13.1,34v0
			c-0.1,1,0.7,2,1.7,2.1l0,0c0.1,0,0.1,0,0.2,0c0.1,0,0.2,0,0.3,0c2-0.3,7-1.6,8.9-6c0.6-1.4,0.8-2.9,0.7-4.4
			c0.9-0.7,1.8-1.4,2.6-2.3c2.8-2.9,5-6.4,6.5-10.2C35.6,9.3,36.2,5.7,35.7,3.3z M27.5,16.7c-1.8,1.8-4.6,1.8-6.3,0
			c-1.8-1.7-1.8-4.6,0-6.3c1.8-1.8,4.6-1.8,6.3,0l0,0C29.3,12,29.3,14.9,27.5,16.7L27.5,16.7z"/>
		<path id="Trazado_32" class="st0" d="M11.6,29c-0.3,0-0.6,0-0.8,0.2c-0.5,0.3-1,0.7-1.5,1c-0.5,0.3-1.2,0.2-1.6-0.3
			c-0.2-0.4-0.2-0.8,0-1.2L8.6,27c0.4-0.6,0.2-1.3-0.3-1.7c-0.2-0.2-0.5-0.2-0.8-0.2c-1,0.1-2,0.6-2.7,1.3c-0.3,0.3-1.1,1.1-1.6,4.4
			c-0.1,0.9-0.2,1.9-0.2,2.8c0,0.7,0.5,1.2,1.2,1.3l0,0h0.1c0.9,0,1.9-0.1,2.8-0.2c3.2-0.5,4.1-1.3,4.4-1.6c0.7-0.7,1.2-1.7,1.3-2.7
			C12.8,29.7,12.3,29.1,11.6,29L11.6,29z"/>
	</g>
	<text transform="matrix(1 0 0 1 -364.4726 3676.8054)" class="st0 st1 st2">Start-it</text>
	<path id="Trazado_69" class="st3" d="M-344.5,3685.5c0.1,4.7-43.8,5.1-44.6,0C-389.2,3680.8-345.3,3680.4-344.5,3685.5z"/>
</g>
</svg>
