<?xml version="1.0" encoding="utf-8"?>
<!-- Generator: Adobe Illustrator 24.3.0, SVG Export Plug-In . SVG Version: 6.00 Build 0)  -->
<svg version="1.1" id="Capa_1" xmlns="http://www.w3.org/2000/svg" xmlns:xlink="http://www.w3.org/1999/xlink" x="0px" y="0px"
	 viewBox="0 0 288 162" style="enable-background:new 0 0 288 162;" xml:space="preserve">
<style type="text/css">
	.st0{fill:#FFFFFF;}
	.st1{font-family:'Inconsolata-SemiBold';}
	.st2{font-size:32px;}
	.st3{opacity:0.117;fill:#FFFFFF;enable-background:new    ;}
</style>
<g id="Grupo_36" transform="translate(400.06 -3644.023)">
	<g id="Grupo_35" transform="translate(-400.06 3644.023)">
		<path id="Trazado_30" class="st0" d="M89.55,60.98c-1.96,0-3.55,1.59-3.55,3.55c0,1.96,1.59,3.55,3.55,3.55
			c1.96,0,3.55-1.59,3.55-3.55c0-0.94-0.37-1.84-1.04-2.51C91.39,61.35,90.49,60.98,89.55,60.98z"/>
		<path id="Trazado_31" class="st0" d="M109.29,46.79v-0.01c-0.23-1-1.01-1.79-2.01-2.03c-3.96-0.97-10.19,0.06-17.09,2.83
			c-6.64,2.58-12.71,6.43-17.89,11.33c-1.41,1.41-2.72,2.91-3.93,4.5c-2.66-0.18-5.32,0.24-7.78,1.25
			c-7.67,3.38-9.86,12.02-10.45,15.57c-0.3,1.81,0.92,3.52,2.73,3.83c0.29,0.05,0.59,0.06,0.89,0.03h0.02l8.55-0.93
			c0.01,0.11,0.02,0.21,0.03,0.3c0.11,1.04,0.57,2.01,1.32,2.75l4.17,4.17c0.74,0.74,1.71,1.21,2.75,1.32l0.29,0.03l-0.93,8.54v0.02
			c-0.19,1.82,1.14,3.46,2.96,3.65c0,0,0,0,0,0c0.1,0.01,0.2,0.02,0.31,0.02c0.18,0,0.37-0.01,0.55-0.04
			c3.57-0.57,12.21-2.74,15.57-10.45c1-2.46,1.43-5.11,1.26-7.75c1.6-1.2,3.1-2.51,4.51-3.93c4.89-5.12,8.75-11.15,11.34-17.74
			C109.2,57.18,110.24,50.91,109.29,46.79z M95.07,70.03c-3.05,3.05-7.99,3.05-11.04,0.01s-3.05-7.99-0.01-11.05
			c3.05-3.05,7.99-3.05,11.04-0.01l0.01,0.01c3.05,3,3.09,7.91,0.08,10.96L95.07,70.03z"/>
		<path id="Trazado_32" class="st0" d="M67.36,91.5c-0.51-0.06-1.03,0.06-1.46,0.35c-0.85,0.58-1.7,1.16-2.56,1.71
			c-0.92,0.59-2.15,0.33-2.74-0.59c-0.4-0.62-0.42-1.42-0.05-2.06l1.61-2.79c0.66-0.97,0.41-2.29-0.56-2.95
			c-0.43-0.29-0.95-0.42-1.46-0.36c-1.79,0.23-3.46,1.04-4.73,2.32c-0.49,0.49-1.97,1.97-2.76,7.61c-0.23,1.62-0.37,3.25-0.43,4.89
			c-0.03,1.17,0.9,2.15,2.07,2.18c0,0,0,0,0,0h0.11c1.64-0.06,3.27-0.2,4.89-0.42c5.64-0.8,7.12-2.28,7.61-2.76
			c1.28-1.28,2.1-2.95,2.31-4.75C69.36,92.7,68.53,91.64,67.36,91.5L67.36,91.5z"/>
	</g>
	<text transform="matrix(1 0 0 1 -290.9009 3742.158)" class="st0 st1 st2">Start-it</text>
	<path id="Trazado_69" class="st3" d="M-256.09,3757.35c0.12,8.15-76.25,8.89-77.71,0C-333.92,3749.2-257.55,3748.46-256.09,3757.35
		z"/>
</g>
</svg>
