<?xml version="1.0" encoding="utf-8"?>
<!-- Generator: Adobe Illustrator 24.3.0, SVG Export Plug-In . SVG Version: 6.00 Build 0)  -->
<svg version="1.1" id="Capa_1" xmlns="http://www.w3.org/2000/svg" xmlns:xlink="http://www.w3.org/1999/xlink" x="0px" y="0px"
	 viewBox="0 0 61 54" style="enable-background:new 0 0 61 54;" xml:space="preserve">
<style type="text/css">
	.st0{fill:#0455BF;}
</style>
<path id="path" class="st0" d="M18.6,6.5c3.3-3.4,7.9-5.3,12.7-5.2C41.1,1.2,49.1,9,49.2,18.8c0,0.1,0,0.2,0,0.4
	c0,3-0.7,5.9-1.8,8.6c-1.3,3.1-2.9,6.2-4.7,9.1c-1.8,2.8-3.6,5.5-5.2,8c-1.3,2.1-2.8,4.1-4.4,6L31,52.9c-0.5-0.5-1-1.3-2.1-2.3
	c-1.6-1.8-3.1-3.7-4.4-5.7c-2.1-2.8-3.9-5.5-5.5-8C17.4,34,16,31.1,14.7,28c-1.2-2.8-1.9-5.8-2.1-8.8C13.4,14.3,15.2,9.9,18.6,6.5z
	 M26.9,23.9c2.6,2.8,7,3,9.8,0.4c2.8-2.6,3-6.9,0.4-9.8c-2.6-2.8-7-3-9.8-0.4c-1.4,1.3-2.2,3.2-2.2,5.1C25,20.9,25.7,22.6,26.9,23.9
	L26.9,23.9z"/>
</svg>
