<?xml version="1.0" encoding="utf-8"?>
<!-- Generator: Adobe Illustrator 25.0.0, SVG Export Plug-In . SVG Version: 6.00 Build 0)  -->
<svg version="1.1" id="Capa_1" xmlns="http://www.w3.org/2000/svg" xmlns:xlink="http://www.w3.org/1999/xlink" x="0px" y="0px"
	 viewBox="0 0 1878.6 1388.7" style="enable-background:new 0 0 1878.6 1388.7;" xml:space="preserve">
<style type="text/css">
	.st0{opacity:8.700000e-02;fill:#1D79F2;enable-background:new    ;}
</style>
<path id="Trazado_435" class="st0" d="M588.7,80.8C651.8,18.6,750.8,5.9,841,10.9c283.1,15.6,538.7,166.5,759.8,337.3
	c80,61.8,158.9,128.5,210.8,213.6c105.7,173.3,74.3,413.4-72.7,556.2c-50,48.7-110.7,85.8-173,118.9
	c-110.7,58.7-230.2,105.8-355.8,119.2c-89.6,9.6-180.3,1.8-269.4-11.5c-248.9-37.3-493.2-119.7-698-260.7
	c-89.9-62-174.5-139-211.5-239S17.9,618,109.6,558.8c37.9-24.5,83.3-35.6,127.7-45.9c65.4-15.3,131.7-30.4,190.7-61.4
	c60.9-32.1,133-94.2,120.9-165.3C536,209.8,525.6,142.8,588.7,80.8z"/>
</svg>
